<svg width="204" height="203" viewBox="0 0 204 203" fill="none" xmlns="http://www.w3.org/2000/svg">
<path d="M93.4653 126.682H110.356V143.573H93.4653V126.682ZM93.4653 59.1184H110.356V109.791H93.4653V59.1184ZM101.826 16.891C55.2073 16.891 17.456 54.7267 17.456 101.346C17.456 147.965 55.2073 185.801 101.826 185.801C148.53 185.801 186.366 147.965 186.366 101.346C186.366 54.7267 148.53 16.891 101.826 16.891ZM101.911 168.91C64.5818 168.91 34.347 138.675 34.347 101.346C34.347 64.0167 64.5818 33.7819 101.911 33.7819C139.24 33.7819 169.475 64.0167 169.475 101.346C169.475 138.675 139.24 168.91 101.911 168.91Z" fill="black" fill-opacity="0.54"/>
</svg>
