<svg width="397" height="207" viewBox="0 0 397 207" fill="none" xmlns="http://www.w3.org/2000/svg">
<g clip-path="url(#clip0_3083_10046)">
<path opacity="0.1" d="M285.693 103.496C280.886 79.2633 252.723 59.8956 247.23 34.6433C237.247 2.5155 204.341 -2.56397 182.958 11.3891C149.077 33.498 185.221 38.9844 118.791 91.2927C102.388 104.209 107.615 161.223 159.218 148.138C186.989 141.096 195.431 140.108 207.922 138.949C239.407 136.027 293.762 144.174 285.693 103.496Z" fill="#3568E5"/>
<path d="M248.08 109.57L199.417 135.263L150.828 109.57V70.7705H248.08V109.57Z" fill="white"/>
<path d="M199.417 135.657C199.353 135.657 199.29 135.641 199.233 135.611L150.645 109.918C150.582 109.884 150.529 109.834 150.492 109.773C150.455 109.712 150.435 109.642 150.435 109.571V70.7705C150.435 70.666 150.477 70.5657 150.551 70.4918C150.624 70.4179 150.725 70.3764 150.829 70.3764H248.08C248.185 70.3764 248.285 70.4179 248.359 70.4918C248.433 70.5657 248.475 70.666 248.475 70.7705V109.57C248.474 109.641 248.455 109.711 248.418 109.772C248.381 109.833 248.328 109.883 248.265 109.916L199.602 135.61C199.545 135.64 199.482 135.657 199.417 135.657ZM151.222 109.333L199.417 134.817L247.686 109.332V71.1646H151.222V109.333Z" fill="#262626"/>
<path d="M248.08 62.4448L199.417 36.7514L221.285 26.2145L269.948 51.9082L248.08 62.4448Z" fill="white"/>
<path d="M248.081 62.8389C248.016 62.8389 247.953 62.8234 247.896 62.7935L199.233 37.0998C199.169 37.0657 199.115 37.0144 199.078 36.9516C199.041 36.8888 199.022 36.8169 199.024 36.744C199.025 36.6711 199.046 36.6 199.086 36.5386C199.125 36.4772 199.181 36.4279 199.246 36.3962L221.114 25.8593C221.169 25.8323 221.23 25.8189 221.292 25.82C221.354 25.8212 221.414 25.8369 221.469 25.8659L270.132 51.5596C270.196 51.5936 270.25 51.6449 270.287 51.7077C270.324 51.7705 270.343 51.8423 270.342 51.9152C270.341 51.9881 270.319 52.0592 270.28 52.1206C270.24 52.182 270.185 52.2312 270.119 52.2629L248.252 62.7998C248.198 62.8256 248.14 62.839 248.081 62.8389ZM200.292 36.7669L248.089 62.0028L269.073 51.8915L221.277 26.6562L200.292 36.7669Z" fill="#262626"/>
<path d="M150.828 62.4448L199.491 36.7514L177.624 26.2145L128.961 51.9082L150.828 62.4448Z" fill="white"/>
<path d="M150.828 62.8389C150.769 62.8389 150.71 62.8256 150.657 62.7998L128.791 52.2629C128.725 52.2312 128.67 52.182 128.63 52.1206C128.591 52.0592 128.569 51.9881 128.568 51.9152C128.567 51.8423 128.586 51.7705 128.623 51.7077C128.66 51.6449 128.713 51.5936 128.778 51.5596L177.441 25.8659C177.495 25.8369 177.556 25.8212 177.618 25.82C177.68 25.8189 177.741 25.8323 177.796 25.8593L199.664 36.3962C199.729 36.4279 199.785 36.4772 199.824 36.5386C199.863 36.6 199.885 36.6711 199.886 36.744C199.888 36.8169 199.869 36.8888 199.832 36.9516C199.795 37.0144 199.741 37.0657 199.676 37.0998L151.013 62.7935C150.956 62.8236 150.893 62.8392 150.828 62.8389ZM129.835 51.8922L150.82 62.0035L198.617 36.7676L177.632 26.6562L129.835 51.8922Z" fill="#262626"/>
<path d="M150.828 62.4448L199.491 88.1385L174.47 101.828L125.807 76.1343L150.828 62.4448Z" fill="white"/>
<path d="M174.47 102.222C174.406 102.222 174.343 102.206 174.286 102.176L125.623 76.4824C125.56 76.4491 125.508 76.3994 125.471 76.3386C125.434 76.2778 125.414 76.2082 125.414 76.1371C125.413 76.066 125.432 75.9961 125.468 75.9348C125.504 75.8735 125.556 75.823 125.618 75.7888L150.639 62.0993C150.696 62.0679 150.76 62.0513 150.825 62.0509C150.89 62.0504 150.955 62.0662 151.012 62.0968L199.675 87.7904C199.738 87.8237 199.791 87.8734 199.828 87.9342C199.864 87.995 199.884 88.0646 199.885 88.1357C199.885 88.2068 199.867 88.2767 199.831 88.338C199.795 88.3993 199.743 88.4498 199.68 88.484L174.659 102.174C174.601 102.205 174.536 102.222 174.47 102.222ZM126.64 76.128L174.467 101.38L198.659 88.1445L150.832 62.8922L126.64 76.128Z" fill="#262626"/>
<path d="M248.08 62.4448L199.417 88.1385L224.438 101.828L273.101 76.1343L248.08 62.4448Z" fill="white"/>
<path d="M224.439 102.222C224.373 102.222 224.308 102.205 224.25 102.174L199.229 88.484C199.167 88.4498 199.115 88.3993 199.079 88.338C199.043 88.2767 199.024 88.2068 199.024 88.1357C199.025 88.0646 199.045 87.995 199.082 87.9342C199.118 87.8734 199.171 87.8237 199.234 87.7904L247.897 62.0968C247.954 62.0662 248.019 62.0504 248.084 62.0509C248.149 62.0513 248.213 62.0679 248.27 62.0993L273.291 75.7888C273.353 75.823 273.405 75.8735 273.441 75.9348C273.477 75.9961 273.496 76.066 273.496 76.1371C273.495 76.2082 273.475 76.2778 273.438 76.3386C273.402 76.3994 273.349 76.4491 273.286 76.4824L224.623 102.176C224.566 102.206 224.503 102.222 224.439 102.222ZM200.251 88.1445L224.443 101.38L272.27 76.128L248.078 62.8922L200.251 88.1445Z" fill="#262626"/>
<path d="M199.491 36.7514L150.828 62.4448L199.418 88.1384L248.081 62.4448L199.491 36.7514Z" fill="#262626"/>
<path d="M199.812 88.1382H199.023V135.263H199.812V88.1382Z" fill="#262626"/>
<path d="M172.152 60.1122C172.087 60.1123 172.024 60.0919 171.971 60.0539C171.902 60.0056 171.856 59.9321 171.842 59.8497C171.828 59.7673 171.847 59.6826 171.895 59.6144C171.954 59.5321 177.653 51.295 171.291 43.7855C170.164 42.4495 168.76 41.3758 167.175 40.6398C165.59 39.9037 163.863 39.523 162.115 39.5245H162.029C162.634 41.6229 162.526 43.4886 161.67 44.9198C161.306 45.5666 160.768 46.0988 160.117 46.4563C159.466 46.8139 158.728 46.9828 157.987 46.9438C157.373 46.8936 156.787 46.6654 156.301 46.2873C155.815 45.9092 155.45 45.3976 155.25 44.8152C154.55 42.9905 155.281 41.2212 157.209 40.0809C158.43 39.4078 159.787 39.0176 161.179 38.9394C160.726 37.739 160.137 36.5944 159.424 35.5279C157.126 32.0204 152.939 29.5922 147.936 28.8662C143.695 28.2511 139.632 28.9756 137.582 30.7114C137.518 30.7654 137.435 30.7918 137.352 30.7849C137.268 30.778 137.191 30.7382 137.137 30.6744C137.083 30.6105 137.057 30.5278 137.064 30.4445C137.071 30.3612 137.11 30.284 137.174 30.23C139.356 28.3829 143.615 27.602 148.026 28.2439C153.209 28.9961 157.555 31.5254 159.952 35.184C160.729 36.3443 161.361 37.5953 161.834 38.9091C163.719 38.8638 165.59 39.242 167.31 40.0156C169.03 40.7893 170.554 41.9388 171.77 43.3795C178.454 51.267 172.469 59.8944 172.408 59.9807C172.379 60.0214 172.341 60.0545 172.296 60.0773C172.252 60.1002 172.202 60.1121 172.152 60.1122ZM161.384 39.5475C160.034 39.605 158.716 39.9734 157.532 40.6238C155.868 41.608 155.251 43.0538 155.84 44.5898C156 45.0604 156.293 45.4743 156.684 45.7809C157.075 46.0875 157.547 46.2735 158.043 46.3161C158.666 46.3441 159.285 46.198 159.831 45.8944C160.376 45.5907 160.826 45.1414 161.13 44.5967C161.916 43.2821 161.988 41.5346 161.383 39.5475H161.384Z" fill="#292A2E"/>
<path d="M132.139 35.7943C131.603 35.9552 131.025 35.9007 130.529 35.6423C130.033 35.3839 129.657 34.942 129.482 34.4107C129.307 33.8795 129.346 33.3008 129.591 32.798C129.836 32.2952 130.268 31.9078 130.794 31.7185C131.321 31.5292 131.901 31.5529 132.41 31.7844C132.919 32.016 133.318 32.4372 133.522 32.9583C133.725 33.4795 133.717 34.0594 133.499 34.5746C133.281 35.0898 132.87 35.4996 132.355 35.7167C132.284 35.7465 132.212 35.7724 132.139 35.7943ZM131.09 32.2911C131.039 32.3065 130.989 32.3246 130.94 32.3454C130.577 32.4983 130.288 32.7868 130.135 33.1495C129.982 33.5121 129.976 33.9202 130.12 34.2869C130.263 34.6535 130.544 34.9498 130.902 35.1125C131.261 35.2752 131.669 35.2915 132.039 35.158C132.41 35.0244 132.713 34.7516 132.886 34.3976C133.058 34.0435 133.085 33.6363 132.961 33.2626C132.838 32.8888 132.573 32.5782 132.223 32.3967C131.874 32.2153 131.467 32.1774 131.09 32.2911Z" fill="#292A2E"/>
<path d="M132.135 30.8541C131.628 31.0054 131.083 30.9641 130.605 30.738C130.126 30.5119 129.749 30.117 129.544 29.6293C129.38 29.2383 129.335 28.8075 129.416 28.3912C129.497 27.975 129.7 27.5921 129.998 27.2909C130.297 26.9897 130.678 26.7838 131.094 26.6992C131.509 26.6146 131.941 26.6552 132.333 26.8157C132.726 26.9762 133.062 27.2495 133.299 27.601C133.536 27.9525 133.664 28.3664 133.666 28.7904C133.668 29.2145 133.544 29.6295 133.31 29.9831C133.076 30.3367 132.742 30.6129 132.351 30.7769C132.28 30.8064 132.208 30.8321 132.135 30.8541ZM131.088 27.3506C131.036 27.3661 130.985 27.3843 130.935 27.4052C130.565 27.5605 130.272 27.8564 130.12 28.2277C129.969 28.599 129.97 29.0154 130.125 29.3853C130.239 29.655 130.427 29.8861 130.669 30.0508C130.911 30.2154 131.195 30.3065 131.488 30.313C131.78 30.3195 132.068 30.2411 132.317 30.0874C132.566 29.9337 132.765 29.7112 132.89 29.4468C133.015 29.1824 133.061 28.8874 133.022 28.5976C132.982 28.3078 132.86 28.0356 132.669 27.8138C132.479 27.592 132.228 27.4302 131.947 27.3479C131.666 27.2657 131.368 27.2668 131.088 27.3506Z" fill="#292A2E"/>
<path d="M131.523 33.0837C133.072 33.0837 134.327 32.2454 134.327 31.2114C134.327 30.1773 133.072 29.3391 131.523 29.3391C129.974 29.3391 128.719 30.1773 128.719 31.2114C128.719 32.2454 129.974 33.0837 131.523 33.0837Z" fill="white"/>
<path d="M132.764 33.2215C132.362 33.3403 131.945 33.4002 131.526 33.3993C129.776 33.3993 128.404 32.4409 128.404 31.2142C128.404 29.9875 129.772 29.0257 131.521 29.0238C132.284 29.0092 133.034 29.2173 133.68 29.6228C133.97 29.7739 134.213 30.0015 134.383 30.281C134.553 30.5605 134.642 30.8812 134.643 31.2082C134.643 31.5351 134.554 31.856 134.384 32.1358C134.215 32.4156 133.972 32.6437 133.683 32.7952C133.399 32.982 133.09 33.1256 132.764 33.2215ZM130.474 29.8044C129.632 30.0566 129.034 30.601 129.035 31.2126C129.035 32.0566 130.175 32.7688 131.526 32.7675C132.164 32.7809 132.792 32.6083 133.333 32.2707C133.537 32.1771 133.709 32.0274 133.829 31.8391C133.95 31.6508 134.013 31.4319 134.013 31.2084C134.013 30.9849 133.949 30.7661 133.828 30.5781C133.707 30.39 133.535 30.2405 133.332 30.1474C132.79 29.8105 132.161 29.6389 131.523 29.6537C131.168 29.6528 130.815 29.7035 130.474 29.8044Z" fill="#292A2E"/>
<path d="M132.211 33.0266L132.145 29.3854L131.239 29.3488L131.176 33.0692L132.211 33.0266Z" fill="#292A2E"/>
<path d="M127.803 32.0036C127.963 32.0036 128.092 31.874 128.092 31.7142C128.092 31.5543 127.963 31.4247 127.803 31.4247C127.643 31.4247 127.513 31.5543 127.513 31.7142C127.513 31.874 127.643 32.0036 127.803 32.0036Z" fill="#292A2E"/>
<path d="M128.029 30.455C128.189 30.455 128.318 30.3255 128.318 30.1656C128.318 30.0058 128.189 29.8762 128.029 29.8762C127.869 29.8762 127.739 30.0058 127.739 30.1656C127.739 30.3255 127.869 30.455 128.029 30.455Z" fill="#292A2E"/>
<path d="M221.703 41.9312C221.636 41.9312 221.57 41.9095 221.516 41.8694C221.462 41.8293 221.422 41.7728 221.402 41.7083C220.356 37.8034 220.077 33.7329 220.58 29.7218C221.395 23.858 224.63 16.1622 235.411 12.7924C236.928 12.3048 238.484 11.9482 240.062 11.7265C240.57 8.55465 242.503 5.1139 246.825 2.74C257.093 -2.90063 264.03 2.16024 264.099 2.21194C264.165 2.26211 264.21 2.33679 264.222 2.41956C264.233 2.50233 264.212 2.58641 264.162 2.6533C264.111 2.72019 264.037 2.76441 263.954 2.77624C263.871 2.78806 263.787 2.76652 263.72 2.71635C263.655 2.66717 257.026 -2.14401 247.129 3.29296C243.09 5.51145 241.242 8.69557 240.716 11.6514C245.471 11.1833 247.748 12.769 248.771 13.9667C249.403 14.6869 249.809 15.5773 249.939 16.5267C250.069 17.4762 249.916 18.4429 249.5 19.3063C249.172 20.0041 248.639 20.5859 247.973 20.9748C247.306 21.3637 246.537 21.5414 245.768 21.4844C243.112 21.3287 240.915 19.0954 240.17 15.7946C239.924 14.6772 239.859 13.5278 239.976 12.3898C238.492 12.6029 237.028 12.9394 235.6 13.3958C227.197 16.0222 222.355 21.5452 221.204 29.8104C220.712 33.7305 220.983 37.7088 222.005 41.5255C222.019 41.5726 222.022 41.6225 222.014 41.6711C222.006 41.7197 221.986 41.7656 221.957 41.8053C221.928 41.8449 221.889 41.8771 221.845 41.8993C221.801 41.9215 221.753 41.9331 221.703 41.9331V41.9312ZM240.619 12.311C240.488 13.4273 240.544 14.5577 240.785 15.6556C241.467 18.6751 243.437 20.7158 245.805 20.8548C246.45 20.9011 247.095 20.7512 247.653 20.4249C248.212 20.0986 248.659 19.6111 248.936 19.0263C249.296 18.2734 249.427 17.4311 249.312 16.6043C249.198 15.7775 248.842 15.0028 248.29 14.3766C246.815 12.6467 244.124 11.9481 240.619 12.311Z" fill="#292A2E"/>
<path d="M271.445 5.39831C271.02 5.39742 270.604 5.27648 270.245 5.04944C269.886 4.82241 269.599 4.49853 269.416 4.1152C269.233 3.73187 269.163 3.3047 269.213 2.88301C269.262 2.46131 269.43 2.06227 269.697 1.73195C269.964 1.40162 270.319 1.15348 270.721 1.01615C271.123 0.878821 271.555 0.857908 271.969 0.955825C272.382 1.05374 272.759 1.2665 273.057 1.56954C273.354 1.87258 273.56 2.25354 273.65 2.66847C273.721 2.99739 273.717 3.33795 273.639 3.66521C273.561 3.99247 273.411 4.29815 273.199 4.55986C272.988 4.82157 272.721 5.0327 272.417 5.17777C272.113 5.32285 271.781 5.3982 271.445 5.39831ZM271.449 1.52566C271.114 1.52565 270.787 1.62964 270.513 1.82331C270.239 2.01697 270.032 2.29077 269.92 2.60697C269.809 2.92317 269.798 3.2662 269.89 3.58878C269.981 3.91136 270.171 4.19762 270.432 4.4081C270.693 4.61857 271.013 4.74291 271.347 4.76396C271.682 4.78501 272.015 4.70175 272.301 4.52565C272.586 4.34955 272.81 4.08928 272.941 3.78071C273.072 3.47214 273.105 3.13047 273.034 2.80277C272.957 2.44022 272.757 2.11524 272.469 1.88261C272.18 1.64997 271.82 1.52391 271.449 1.52566Z" fill="#292A2E"/>
<path d="M270.495 10.5437C269.917 10.5436 269.361 10.3221 268.941 9.9246C268.522 9.52713 268.271 8.98399 268.24 8.40701C268.209 7.83003 268.4 7.26311 268.775 6.82296C269.149 6.38281 269.678 6.10293 270.253 6.04093C270.828 5.97894 271.404 6.13955 271.864 6.4897C272.324 6.83985 272.632 7.35289 272.724 7.92321C272.817 8.49353 272.688 9.07771 272.363 9.55551C272.038 10.0333 271.542 10.3684 270.977 10.4917C270.819 10.5262 270.657 10.5437 270.495 10.5437ZM270.503 6.67071C270.386 6.67076 270.27 6.68334 270.156 6.70823C269.753 6.79668 269.4 7.0361 269.168 7.37725C268.936 7.7184 268.844 8.13532 268.911 8.54223C268.977 8.94914 269.197 9.31509 269.526 9.56478C269.854 9.81448 270.265 9.92893 270.675 9.88458C271.085 9.84024 271.463 9.64047 271.73 9.32638C271.997 9.0123 272.134 8.60778 272.112 8.19607C272.09 7.78435 271.91 7.39675 271.611 7.11301C271.312 6.82928 270.915 6.67099 270.503 6.67071Z" fill="#292A2E"/>
<path d="M273.882 6.31936C274.081 5.24254 272.934 4.12843 271.322 3.83093C269.709 3.53343 268.24 4.1652 268.042 5.24202C267.843 6.31884 268.989 7.43294 270.602 7.73044C272.214 8.02794 273.683 7.39618 273.882 6.31936Z" fill="white"/>
<path d="M271.396 8.11962C271.11 8.11915 270.825 8.09277 270.544 8.0408C269.751 7.90926 269.014 7.54923 268.422 7.00486C268.163 6.78405 267.964 6.50157 267.844 6.18351C267.723 5.86546 267.684 5.5221 267.731 5.18518C267.808 4.85365 267.966 4.54671 268.193 4.2927C268.419 4.03868 268.706 3.84579 269.027 3.73183C269.777 3.44859 270.59 3.37577 271.379 3.52124C272.167 3.66671 272.901 4.02494 273.501 4.55718C273.759 4.77798 273.958 5.06047 274.079 5.37852C274.2 5.69658 274.239 6.03994 274.192 6.37686C274.115 6.70838 273.956 7.01532 273.73 7.26934C273.504 7.52335 273.217 7.71625 272.896 7.83021C272.421 8.02693 271.91 8.12538 271.396 8.11962ZM270.525 4.07231C270.097 4.06686 269.672 4.14804 269.276 4.31096C269.052 4.38595 268.85 4.51562 268.688 4.68825C268.527 4.86088 268.411 5.07101 268.352 5.29962C268.326 5.53444 268.359 5.77201 268.448 5.99082C268.537 6.20964 268.679 6.40278 268.862 6.55277C269.372 6.99786 269.993 7.29754 270.658 7.4204C271.324 7.54326 272.011 7.48478 272.646 7.25107C272.87 7.17609 273.072 7.04641 273.234 6.87378C273.395 6.70116 273.511 6.49103 273.57 6.26242C273.596 6.02758 273.563 5.78996 273.474 5.57111C273.385 5.35227 273.243 5.15914 273.06 5.00926C272.558 4.55143 271.933 4.24983 271.262 4.14135C271.02 4.09613 270.773 4.07302 270.526 4.07231H270.525Z" fill="#292A2E"/>
<path d="M270.597 3.7583L269.963 7.56223L270.899 7.77534L271.683 3.91372L270.597 3.7583Z" fill="#292A2E"/>
<path d="M274.399 7.85072C274.568 7.85072 274.706 7.71352 274.706 7.54429C274.706 7.37505 274.568 7.23785 274.399 7.23785C274.23 7.23785 274.093 7.37505 274.093 7.54429C274.093 7.71352 274.23 7.85072 274.399 7.85072Z" fill="#292A2E"/>
<path d="M274.933 6.28199C275.103 6.28199 275.24 6.1448 275.24 5.97556C275.24 5.80632 275.103 5.66913 274.933 5.66913C274.764 5.66913 274.627 5.80632 274.627 5.97556C274.627 6.1448 274.764 6.28199 274.933 6.28199Z" fill="#292A2E"/>
</g>
<path d="M8.7405 167.348C8.67232 166.772 8.3958 166.325 7.91096 166.007C7.42611 165.689 6.83141 165.53 6.12686 165.53C5.61171 165.53 5.16096 165.613 4.77459 165.78C4.39202 165.947 4.09277 166.176 3.87686 166.467C3.66474 166.759 3.55868 167.091 3.55868 167.462C3.55868 167.772 3.63255 168.039 3.78027 168.263C3.93179 168.483 4.12497 168.666 4.35982 168.814C4.59467 168.958 4.84088 169.077 5.09846 169.172C5.35603 169.263 5.59277 169.337 5.80868 169.394L6.9905 169.712C7.29353 169.791 7.63065 169.901 8.00186 170.041C8.37686 170.181 8.73482 170.373 9.07573 170.615C9.42043 170.854 9.70452 171.161 9.928 171.536C10.1515 171.911 10.2632 172.371 10.2632 172.916C10.2632 173.545 10.0985 174.113 9.76891 174.621C9.44315 175.128 8.96588 175.532 8.33709 175.831C7.71209 176.13 6.95262 176.28 6.05868 176.28C5.22535 176.28 4.50376 176.146 3.89391 175.877C3.28785 175.608 2.81058 175.233 2.46209 174.752C2.11739 174.271 1.92232 173.712 1.87686 173.075H3.33141C3.36929 173.515 3.51702 173.878 3.77459 174.166C4.03596 174.45 4.3655 174.663 4.76323 174.803C5.16474 174.939 5.59656 175.007 6.05868 175.007C6.59656 175.007 7.07952 174.92 7.50755 174.746C7.93558 174.568 8.27459 174.322 8.52459 174.007C8.77459 173.689 8.89959 173.318 8.89959 172.894C8.89959 172.507 8.79164 172.193 8.57573 171.95C8.35982 171.708 8.07573 171.511 7.72346 171.36C7.37118 171.208 6.9905 171.075 6.58141 170.962L5.14959 170.553C4.2405 170.291 3.5208 169.918 2.9905 169.433C2.4602 168.949 2.19505 168.314 2.19505 167.53C2.19505 166.878 2.37118 166.31 2.72346 165.825C3.07952 165.337 3.55679 164.958 4.15527 164.689C4.75755 164.416 5.42989 164.28 6.17232 164.28C6.92232 164.28 7.58899 164.414 8.17232 164.683C8.75565 164.949 9.21777 165.312 9.55868 165.774C9.90338 166.236 10.0852 166.761 10.1041 167.348H8.7405ZM16.0936 176.257C15.3057 176.257 14.6145 176.07 14.0198 175.695C13.4289 175.32 12.9667 174.795 12.6334 174.121C12.3039 173.447 12.1391 172.659 12.1391 171.757C12.1391 170.848 12.3039 170.055 12.6334 169.377C12.9667 168.699 13.4289 168.172 14.0198 167.797C14.6145 167.422 15.3057 167.235 16.0936 167.235C16.8815 167.235 17.5709 167.422 18.1618 167.797C18.7565 168.172 19.2186 168.699 19.5482 169.377C19.8815 170.055 20.0482 170.848 20.0482 171.757C20.0482 172.659 19.8815 173.447 19.5482 174.121C19.2186 174.795 18.7565 175.32 18.1618 175.695C17.5709 176.07 16.8815 176.257 16.0936 176.257ZM16.0936 175.053C16.6921 175.053 17.1845 174.899 17.5709 174.592C17.9573 174.286 18.2432 173.882 18.4289 173.382C18.6145 172.882 18.7073 172.341 18.7073 171.757C18.7073 171.174 18.6145 170.63 18.4289 170.127C18.2432 169.623 17.9573 169.216 17.5709 168.905C17.1845 168.594 16.6921 168.439 16.0936 168.439C15.4951 168.439 15.0027 168.594 14.6164 168.905C14.23 169.216 13.944 169.623 13.7584 170.127C13.5728 170.63 13.48 171.174 13.48 171.757C13.48 172.341 13.5728 172.882 13.7584 173.382C13.944 173.882 14.23 174.286 14.6164 174.592C15.0027 174.899 15.4951 175.053 16.0936 175.053ZM22.245 176.075V167.348H23.5405V168.666H23.6314C23.7905 168.235 24.0784 167.884 24.495 167.615C24.9117 167.346 25.3814 167.212 25.9041 167.212C26.0026 167.212 26.1257 167.214 26.2735 167.217C26.4212 167.221 26.5329 167.227 26.6087 167.235V168.598C26.5632 168.587 26.4591 168.57 26.2962 168.547C26.1371 168.521 25.9685 168.507 25.7905 168.507C25.3663 168.507 24.9875 168.596 24.6541 168.774C24.3246 168.949 24.0632 169.191 23.87 169.502C23.6807 169.808 23.586 170.159 23.586 170.553V176.075H22.245ZM28.3482 176.075V167.348H29.6436V168.666H29.7345C29.8936 168.235 30.1815 167.884 30.5982 167.615C31.0148 167.346 31.4845 167.212 32.0073 167.212C32.1057 167.212 32.2289 167.214 32.3766 167.217C32.5243 167.221 32.6361 167.227 32.7118 167.235V168.598C32.6664 168.587 32.5622 168.57 32.3993 168.547C32.2402 168.521 32.0717 168.507 31.8936 168.507C31.4694 168.507 31.0906 168.596 30.7573 168.774C30.4277 168.949 30.1664 169.191 29.9732 169.502C29.7838 169.808 29.6891 170.159 29.6891 170.553V176.075H28.3482ZM35.5806 179.348C35.3533 179.348 35.1506 179.329 34.9726 179.291C34.7946 179.257 34.6715 179.223 34.6033 179.189L34.9442 178.007C35.2699 178.091 35.5578 178.121 35.8078 178.098C36.0578 178.075 36.2794 177.964 36.4726 177.763C36.6696 177.566 36.8495 177.246 37.0124 176.803L37.2624 176.121L34.0351 167.348H35.4896L37.8987 174.303H37.9896L40.3987 167.348H41.8533L38.1487 177.348C37.9821 177.799 37.7756 178.172 37.5294 178.467C37.2832 178.767 36.9972 178.988 36.6715 179.132C36.3495 179.276 35.9859 179.348 35.5806 179.348ZM45.2263 174.485L45.1354 175.098C45.071 175.53 44.9725 175.992 44.8399 176.485C44.7111 176.977 44.5767 177.441 44.4365 177.877C44.2964 178.312 44.1808 178.659 44.0899 178.916H43.0672C43.1164 178.674 43.1808 178.354 43.2604 177.956C43.3399 177.558 43.4195 177.113 43.499 176.621C43.5824 176.132 43.6505 175.632 43.7036 175.121L43.7718 174.485H45.2263ZM53.3743 179.348C53.147 179.348 52.9444 179.329 52.7664 179.291C52.5883 179.257 52.4652 179.223 52.397 179.189L52.7379 178.007C53.0637 178.091 53.3516 178.121 53.6016 178.098C53.8516 178.075 54.0732 177.964 54.2664 177.763C54.4633 177.566 54.6432 177.246 54.8061 176.803L55.0561 176.121L51.8289 167.348H53.2834L55.6925 174.303H55.7834L58.1925 167.348H59.647L55.9425 177.348C55.7758 177.799 55.5694 178.172 55.3232 178.467C55.077 178.767 54.791 178.988 54.4652 179.132C54.1432 179.276 53.7796 179.348 53.3743 179.348ZM64.7999 176.257C64.012 176.257 63.3207 176.07 62.726 175.695C62.1351 175.32 61.673 174.795 61.3396 174.121C61.0101 173.447 60.8453 172.659 60.8453 171.757C60.8453 170.848 61.0101 170.055 61.3396 169.377C61.673 168.699 62.1351 168.172 62.726 167.797C63.3207 167.422 64.012 167.235 64.7999 167.235C65.5878 167.235 66.2771 167.422 66.8681 167.797C67.4628 168.172 67.9249 168.699 68.2544 169.377C68.5878 170.055 68.7544 170.848 68.7544 171.757C68.7544 172.659 68.5878 173.447 68.2544 174.121C67.9249 174.795 67.4628 175.32 66.8681 175.695C66.2771 176.07 65.5878 176.257 64.7999 176.257ZM64.7999 175.053C65.3984 175.053 65.8908 174.899 66.2771 174.592C66.6635 174.286 66.9495 173.882 67.1351 173.382C67.3207 172.882 67.4135 172.341 67.4135 171.757C67.4135 171.174 67.3207 170.63 67.1351 170.127C66.9495 169.623 66.6635 169.216 66.2771 168.905C65.8908 168.594 65.3984 168.439 64.7999 168.439C64.2014 168.439 63.709 168.594 63.3226 168.905C62.9362 169.216 62.6503 169.623 62.4646 170.127C62.279 170.63 62.1862 171.174 62.1862 171.757C62.1862 172.341 62.279 172.882 62.4646 173.382C62.6503 173.882 62.9362 174.286 63.3226 174.592C63.709 174.899 64.2014 175.053 64.7999 175.053ZM76.4513 172.507V167.348H77.7922V176.075H76.4513V174.598H76.3604C76.1558 175.041 75.8377 175.418 75.4058 175.729C74.974 176.036 74.4286 176.189 73.7695 176.189C73.224 176.189 72.7392 176.07 72.3149 175.831C71.8907 175.589 71.5574 175.225 71.3149 174.74C71.0725 174.252 70.9513 173.636 70.9513 172.894V167.348H72.2922V172.803C72.2922 173.439 72.4702 173.947 72.8263 174.325C73.1861 174.704 73.6445 174.894 74.2013 174.894C74.5346 174.894 74.8736 174.808 75.2183 174.638C75.5668 174.467 75.8585 174.206 76.0933 173.854C76.332 173.502 76.4513 173.053 76.4513 172.507ZM88.3436 176.257C87.6164 176.257 86.9743 176.074 86.4175 175.706C85.8607 175.335 85.4251 174.812 85.1107 174.138C84.7963 173.46 84.6391 172.659 84.6391 171.735C84.6391 170.818 84.7963 170.022 85.1107 169.348C85.4251 168.674 85.8626 168.153 86.4232 167.786C86.9838 167.418 87.6315 167.235 88.3664 167.235C88.9345 167.235 89.3834 167.329 89.7129 167.519C90.0463 167.704 90.3001 167.916 90.4743 168.155C90.6523 168.39 90.7906 168.583 90.8891 168.735H91.0027V164.439H92.3436V176.075H91.0482V174.735H90.8891C90.7906 174.894 90.6504 175.094 90.4686 175.337C90.2868 175.575 90.0273 175.789 89.6902 175.979C89.3531 176.164 88.9042 176.257 88.3436 176.257ZM88.5254 175.053C89.0633 175.053 89.5179 174.913 89.8891 174.632C90.2603 174.348 90.5425 173.956 90.7357 173.456C90.9289 172.952 91.0254 172.371 91.0254 171.712C91.0254 171.06 90.9307 170.49 90.7414 170.002C90.552 169.509 90.2717 169.127 89.9004 168.854C89.5292 168.577 89.0709 168.439 88.5254 168.439C87.9573 168.439 87.4838 168.585 87.105 168.877C86.73 169.164 86.4478 169.556 86.2584 170.053C86.0728 170.545 85.98 171.098 85.98 171.712C85.98 172.333 86.0747 172.897 86.2641 173.405C86.4573 173.909 86.7414 174.31 87.1164 174.61C87.4951 174.905 87.9648 175.053 88.5254 175.053ZM98.6811 176.257C97.8933 176.257 97.202 176.07 96.6073 175.695C96.0164 175.32 95.5542 174.795 95.2209 174.121C94.8914 173.447 94.7266 172.659 94.7266 171.757C94.7266 170.848 94.8914 170.055 95.2209 169.377C95.5542 168.699 96.0164 168.172 96.6073 167.797C97.202 167.422 97.8933 167.235 98.6811 167.235C99.469 167.235 100.158 167.422 100.749 167.797C101.344 168.172 101.806 168.699 102.136 169.377C102.469 170.055 102.636 170.848 102.636 171.757C102.636 172.659 102.469 173.447 102.136 174.121C101.806 174.795 101.344 175.32 100.749 175.695C100.158 176.07 99.469 176.257 98.6811 176.257ZM98.6811 175.053C99.2796 175.053 99.772 174.899 100.158 174.592C100.545 174.286 100.831 173.882 101.016 173.382C101.202 172.882 101.295 172.341 101.295 171.757C101.295 171.174 101.202 170.63 101.016 170.127C100.831 169.623 100.545 169.216 100.158 168.905C99.772 168.594 99.2796 168.439 98.6811 168.439C98.0826 168.439 97.5902 168.594 97.2039 168.905C96.8175 169.216 96.5315 169.623 96.3459 170.127C96.1603 170.63 96.0675 171.174 96.0675 171.757C96.0675 172.341 96.1603 172.882 96.3459 173.382C96.5315 173.882 96.8175 174.286 97.2039 174.592C97.5902 174.899 98.0826 175.053 98.6811 175.053ZM106.173 170.825V176.075H104.833V167.348H106.128V168.712H106.242C106.446 168.269 106.757 167.913 107.173 167.644C107.59 167.371 108.128 167.235 108.787 167.235C109.378 167.235 109.895 167.356 110.338 167.598C110.781 167.837 111.126 168.2 111.372 168.689C111.619 169.174 111.742 169.788 111.742 170.53V176.075H110.401V170.621C110.401 169.935 110.223 169.401 109.867 169.019C109.511 168.632 109.022 168.439 108.401 168.439C107.973 168.439 107.59 168.532 107.253 168.717C106.92 168.903 106.656 169.174 106.463 169.53C106.27 169.886 106.173 170.318 106.173 170.825ZM115.524 164.439V165.462C115.524 165.772 115.467 166.104 115.353 166.456C115.243 166.805 115.081 167.144 114.865 167.473C114.653 167.799 114.395 168.083 114.092 168.325L113.365 167.735C113.603 167.394 113.81 167.039 113.984 166.672C114.162 166.301 114.251 165.905 114.251 165.485V164.439H115.524ZM121.475 167.348V168.485H116.952V167.348H121.475ZM118.27 165.257H119.611V173.575C119.611 173.954 119.666 174.238 119.776 174.428C119.89 174.613 120.034 174.738 120.208 174.803C120.386 174.863 120.573 174.894 120.77 174.894C120.918 174.894 121.039 174.886 121.134 174.871C121.229 174.852 121.304 174.837 121.361 174.825L121.634 176.03C121.543 176.064 121.416 176.098 121.253 176.132C121.09 176.17 120.884 176.189 120.634 176.189C120.255 176.189 119.884 176.108 119.52 175.945C119.16 175.782 118.861 175.534 118.623 175.2C118.388 174.867 118.27 174.447 118.27 173.939V165.257ZM129.633 170.825V176.075H128.292V164.439H129.633V168.712H129.746C129.951 168.261 130.258 167.903 130.667 167.638C131.08 167.369 131.629 167.235 132.315 167.235C132.909 167.235 133.43 167.354 133.877 167.592C134.324 167.827 134.671 168.189 134.917 168.678C135.167 169.163 135.292 169.78 135.292 170.53V176.075H133.951V170.621C133.951 169.928 133.771 169.392 133.411 169.013C133.055 168.63 132.561 168.439 131.928 168.439C131.489 168.439 131.095 168.532 130.746 168.717C130.402 168.903 130.129 169.174 129.928 169.53C129.731 169.886 129.633 170.318 129.633 170.825ZM140.463 176.28C139.91 176.28 139.408 176.176 138.958 175.967C138.507 175.755 138.149 175.45 137.884 175.053C137.619 174.651 137.486 174.166 137.486 173.598C137.486 173.098 137.584 172.693 137.781 172.382C137.978 172.068 138.242 171.822 138.571 171.644C138.901 171.466 139.264 171.333 139.662 171.246C140.064 171.155 140.467 171.083 140.872 171.03C141.403 170.962 141.833 170.911 142.162 170.877C142.495 170.839 142.738 170.776 142.889 170.689C143.045 170.602 143.122 170.45 143.122 170.235V170.189C143.122 169.628 142.969 169.193 142.662 168.882C142.359 168.572 141.899 168.416 141.281 168.416C140.641 168.416 140.139 168.556 139.776 168.837C139.412 169.117 139.156 169.416 139.009 169.735L137.736 169.28C137.963 168.75 138.266 168.337 138.645 168.041C139.028 167.742 139.444 167.534 139.895 167.416C140.35 167.295 140.797 167.235 141.236 167.235C141.516 167.235 141.838 167.269 142.202 167.337C142.569 167.401 142.923 167.536 143.264 167.74C143.609 167.945 143.895 168.253 144.122 168.666C144.35 169.079 144.463 169.632 144.463 170.325V176.075H143.122V174.894H143.054C142.963 175.083 142.812 175.286 142.6 175.502C142.387 175.717 142.105 175.901 141.753 176.053C141.401 176.204 140.971 176.28 140.463 176.28ZM140.668 175.075C141.198 175.075 141.645 174.971 142.009 174.763C142.376 174.555 142.653 174.286 142.838 173.956C143.028 173.627 143.122 173.28 143.122 172.916V171.689C143.065 171.757 142.94 171.82 142.747 171.877C142.558 171.93 142.338 171.977 142.088 172.019C141.842 172.056 141.601 172.091 141.367 172.121C141.136 172.147 140.948 172.17 140.804 172.189C140.456 172.235 140.13 172.308 139.827 172.411C139.528 172.509 139.285 172.659 139.1 172.86C138.918 173.056 138.827 173.325 138.827 173.666C138.827 174.132 138.999 174.485 139.344 174.723C139.692 174.958 140.134 175.075 140.668 175.075ZM153.885 167.348L150.657 176.075H149.294L146.066 167.348H147.521L149.93 174.303H150.021L152.43 167.348H153.885ZM159.151 176.257C158.31 176.257 157.585 176.072 156.975 175.7C156.369 175.325 155.901 174.803 155.571 174.132C155.246 173.458 155.083 172.674 155.083 171.78C155.083 170.886 155.246 170.098 155.571 169.416C155.901 168.731 156.359 168.197 156.946 167.814C157.537 167.428 158.227 167.235 159.015 167.235C159.469 167.235 159.918 167.31 160.361 167.462C160.804 167.613 161.208 167.86 161.571 168.2C161.935 168.538 162.225 168.985 162.441 169.541C162.657 170.098 162.765 170.784 162.765 171.598V172.166H156.037V171.007H161.401C161.401 170.515 161.303 170.075 161.106 169.689C160.912 169.303 160.636 168.998 160.276 168.774C159.92 168.551 159.499 168.439 159.015 168.439C158.481 168.439 158.018 168.572 157.628 168.837C157.242 169.098 156.945 169.439 156.736 169.86C156.528 170.28 156.424 170.731 156.424 171.212V171.985C156.424 172.644 156.537 173.202 156.765 173.661C156.996 174.115 157.316 174.462 157.725 174.7C158.134 174.935 158.609 175.053 159.151 175.053C159.503 175.053 159.821 175.003 160.106 174.905C160.393 174.803 160.642 174.651 160.85 174.45C161.058 174.246 161.219 173.992 161.333 173.689L162.628 174.053C162.492 174.492 162.263 174.878 161.941 175.212C161.619 175.541 161.221 175.799 160.748 175.985C160.274 176.166 159.742 176.257 159.151 176.257ZM172.173 176.28C171.62 176.28 171.118 176.176 170.667 175.967C170.216 175.755 169.858 175.45 169.593 175.053C169.328 174.651 169.195 174.166 169.195 173.598C169.195 173.098 169.294 172.693 169.491 172.382C169.688 172.068 169.951 171.822 170.281 171.644C170.61 171.466 170.974 171.333 171.371 171.246C171.773 171.155 172.176 171.083 172.582 171.03C173.112 170.962 173.542 170.911 173.871 170.877C174.205 170.839 174.447 170.776 174.599 170.689C174.754 170.602 174.832 170.45 174.832 170.235V170.189C174.832 169.628 174.678 169.193 174.371 168.882C174.068 168.572 173.608 168.416 172.991 168.416C172.351 168.416 171.849 168.556 171.485 168.837C171.121 169.117 170.866 169.416 170.718 169.735L169.445 169.28C169.673 168.75 169.976 168.337 170.354 168.041C170.737 167.742 171.154 167.534 171.604 167.416C172.059 167.295 172.506 167.235 172.945 167.235C173.226 167.235 173.548 167.269 173.911 167.337C174.279 167.401 174.633 167.536 174.974 167.74C175.318 167.945 175.604 168.253 175.832 168.666C176.059 169.079 176.173 169.632 176.173 170.325V176.075H174.832V174.894H174.764C174.673 175.083 174.521 175.286 174.309 175.502C174.097 175.717 173.815 175.901 173.462 176.053C173.11 176.204 172.68 176.28 172.173 176.28ZM172.377 175.075C172.907 175.075 173.354 174.971 173.718 174.763C174.085 174.555 174.362 174.286 174.548 173.956C174.737 173.627 174.832 173.28 174.832 172.916V171.689C174.775 171.757 174.65 171.82 174.457 171.877C174.267 171.93 174.048 171.977 173.798 172.019C173.551 172.056 173.311 172.091 173.076 172.121C172.845 172.147 172.657 172.17 172.514 172.189C172.165 172.235 171.839 172.308 171.536 172.411C171.237 172.509 170.995 172.659 170.809 172.86C170.627 173.056 170.536 173.325 170.536 173.666C170.536 174.132 170.709 174.485 171.053 174.723C171.402 174.958 171.843 175.075 172.377 175.075ZM180.111 170.825V176.075H178.77V167.348H180.065V168.712H180.179C180.384 168.269 180.694 167.913 181.111 167.644C181.528 167.371 182.065 167.235 182.725 167.235C183.315 167.235 183.833 167.356 184.276 167.598C184.719 167.837 185.064 168.2 185.31 168.689C185.556 169.174 185.679 169.788 185.679 170.53V176.075H184.338V170.621C184.338 169.935 184.16 169.401 183.804 169.019C183.448 168.632 182.959 168.439 182.338 168.439C181.91 168.439 181.528 168.532 181.19 168.717C180.857 168.903 180.594 169.174 180.401 169.53C180.208 169.886 180.111 170.318 180.111 170.825ZM188.831 179.348C188.603 179.348 188.401 179.329 188.223 179.291C188.045 179.257 187.921 179.223 187.853 179.189L188.194 178.007C188.52 178.091 188.808 178.121 189.058 178.098C189.308 178.075 189.529 177.964 189.723 177.763C189.92 177.566 190.1 177.246 190.262 176.803L190.512 176.121L187.285 167.348H188.74L191.149 174.303H191.24L193.649 167.348H195.103L191.399 177.348C191.232 177.799 191.026 178.172 190.779 178.467C190.533 178.767 190.247 178.988 189.921 179.132C189.6 179.276 189.236 179.348 188.831 179.348ZM205.219 176.257C204.4 176.257 203.696 176.064 203.105 175.678C202.514 175.291 202.06 174.759 201.741 174.081C201.423 173.403 201.264 172.628 201.264 171.757C201.264 170.871 201.427 170.089 201.753 169.411C202.082 168.729 202.541 168.197 203.128 167.814C203.719 167.428 204.408 167.235 205.196 167.235C205.81 167.235 206.363 167.348 206.855 167.575C207.347 167.803 207.751 168.121 208.065 168.53C208.38 168.939 208.575 169.416 208.65 169.962H207.31C207.207 169.564 206.98 169.212 206.628 168.905C206.279 168.594 205.81 168.439 205.219 168.439C204.696 168.439 204.238 168.575 203.844 168.848C203.453 169.117 203.149 169.498 202.929 169.99C202.713 170.479 202.605 171.053 202.605 171.712C202.605 172.386 202.711 172.973 202.923 173.473C203.139 173.973 203.442 174.361 203.832 174.638C204.226 174.914 204.688 175.053 205.219 175.053C205.567 175.053 205.883 174.992 206.167 174.871C206.452 174.75 206.692 174.575 206.889 174.348C207.086 174.121 207.226 173.848 207.31 173.53H208.65C208.575 174.045 208.387 174.509 208.088 174.922C207.792 175.331 207.4 175.657 206.912 175.899C206.427 176.138 205.863 176.257 205.219 176.257ZM214.306 176.257C213.518 176.257 212.827 176.07 212.232 175.695C211.641 175.32 211.179 174.795 210.846 174.121C210.516 173.447 210.352 172.659 210.352 171.757C210.352 170.848 210.516 170.055 210.846 169.377C211.179 168.699 211.641 168.172 212.232 167.797C212.827 167.422 213.518 167.235 214.306 167.235C215.094 167.235 215.783 167.422 216.374 167.797C216.969 168.172 217.431 168.699 217.761 169.377C218.094 170.055 218.261 170.848 218.261 171.757C218.261 172.659 218.094 173.447 217.761 174.121C217.431 174.795 216.969 175.32 216.374 175.695C215.783 176.07 215.094 176.257 214.306 176.257ZM214.306 175.053C214.905 175.053 215.397 174.899 215.783 174.592C216.17 174.286 216.456 173.882 216.641 173.382C216.827 172.882 216.92 172.341 216.92 171.757C216.92 171.174 216.827 170.63 216.641 170.127C216.456 169.623 216.17 169.216 215.783 168.905C215.397 168.594 214.905 168.439 214.306 168.439C213.708 168.439 213.215 168.594 212.829 168.905C212.442 169.216 212.157 169.623 211.971 170.127C211.785 170.63 211.692 171.174 211.692 171.757C211.692 172.341 211.785 172.882 211.971 173.382C212.157 173.882 212.442 174.286 212.829 174.592C213.215 174.899 213.708 175.053 214.306 175.053ZM221.798 170.825V176.075H220.458V167.348H221.753V168.712H221.867C222.071 168.269 222.382 167.913 222.798 167.644C223.215 167.371 223.753 167.235 224.412 167.235C225.003 167.235 225.52 167.356 225.963 167.598C226.406 167.837 226.751 168.2 226.997 168.689C227.244 169.174 227.367 169.788 227.367 170.53V176.075H226.026V170.621C226.026 169.935 225.848 169.401 225.492 169.019C225.136 168.632 224.647 168.439 224.026 168.439C223.598 168.439 223.215 168.532 222.878 168.717C222.545 168.903 222.281 169.174 222.088 169.53C221.895 169.886 221.798 170.318 221.798 170.825ZM233.762 167.348V168.485H229.24V167.348H233.762ZM230.558 165.257H231.899V173.575C231.899 173.954 231.954 174.238 232.064 174.428C232.177 174.613 232.321 174.738 232.495 174.803C232.673 174.863 232.861 174.894 233.058 174.894C233.206 174.894 233.327 174.886 233.421 174.871C233.516 174.852 233.592 174.837 233.649 174.825L233.921 176.03C233.831 176.064 233.704 176.098 233.541 176.132C233.378 176.17 233.171 176.189 232.921 176.189C232.543 176.189 232.171 176.108 231.808 175.945C231.448 175.782 231.149 175.534 230.91 175.2C230.675 174.867 230.558 174.447 230.558 173.939V165.257ZM238.498 176.28C237.945 176.28 237.443 176.176 236.992 175.967C236.541 175.755 236.183 175.45 235.918 175.053C235.653 174.651 235.52 174.166 235.52 173.598C235.52 173.098 235.619 172.693 235.816 172.382C236.013 172.068 236.276 171.822 236.606 171.644C236.935 171.466 237.299 171.333 237.696 171.246C238.098 171.155 238.501 171.083 238.907 171.03C239.437 170.962 239.867 170.911 240.196 170.877C240.53 170.839 240.772 170.776 240.924 170.689C241.079 170.602 241.157 170.45 241.157 170.235V170.189C241.157 169.628 241.003 169.193 240.696 168.882C240.393 168.572 239.933 168.416 239.316 168.416C238.676 168.416 238.174 168.556 237.81 168.837C237.446 169.117 237.191 169.416 237.043 169.735L235.77 169.28C235.998 168.75 236.301 168.337 236.679 168.041C237.062 167.742 237.479 167.534 237.929 167.416C238.384 167.295 238.831 167.235 239.27 167.235C239.551 167.235 239.873 167.269 240.236 167.337C240.604 167.401 240.958 167.536 241.299 167.74C241.643 167.945 241.929 168.253 242.157 168.666C242.384 169.079 242.498 169.632 242.498 170.325V176.075H241.157V174.894H241.089C240.998 175.083 240.846 175.286 240.634 175.502C240.422 175.717 240.14 175.901 239.787 176.053C239.435 176.204 239.005 176.28 238.498 176.28ZM238.702 175.075C239.232 175.075 239.679 174.971 240.043 174.763C240.41 174.555 240.687 174.286 240.873 173.956C241.062 173.627 241.157 173.28 241.157 172.916V171.689C241.1 171.757 240.975 171.82 240.782 171.877C240.592 171.93 240.373 171.977 240.123 172.019C239.876 172.056 239.636 172.091 239.401 172.121C239.17 172.147 238.982 172.17 238.839 172.189C238.49 172.235 238.164 172.308 237.861 172.411C237.562 172.509 237.32 172.659 237.134 172.86C236.952 173.056 236.861 173.325 236.861 173.666C236.861 174.132 237.034 174.485 237.378 174.723C237.727 174.958 238.168 175.075 238.702 175.075ZM248.64 176.257C247.822 176.257 247.118 176.064 246.527 175.678C245.936 175.291 245.481 174.759 245.163 174.081C244.845 173.403 244.686 172.628 244.686 171.757C244.686 170.871 244.849 170.089 245.175 169.411C245.504 168.729 245.962 168.197 246.55 167.814C247.14 167.428 247.83 167.235 248.618 167.235C249.231 167.235 249.784 167.348 250.277 167.575C250.769 167.803 251.173 168.121 251.487 168.53C251.801 168.939 251.997 169.416 252.072 169.962H250.731C250.629 169.564 250.402 169.212 250.05 168.905C249.701 168.594 249.231 168.439 248.64 168.439C248.118 168.439 247.659 168.575 247.265 168.848C246.875 169.117 246.57 169.498 246.351 169.99C246.135 170.479 246.027 171.053 246.027 171.712C246.027 172.386 246.133 172.973 246.345 173.473C246.561 173.973 246.864 174.361 247.254 174.638C247.648 174.914 248.11 175.053 248.64 175.053C248.989 175.053 249.305 174.992 249.589 174.871C249.873 174.75 250.114 174.575 250.311 174.348C250.508 174.121 250.648 173.848 250.731 173.53H252.072C251.997 174.045 251.809 174.509 251.51 174.922C251.214 175.331 250.822 175.657 250.334 175.899C249.849 176.138 249.284 176.257 248.64 176.257ZM257.978 167.348V168.485H253.455V167.348H257.978ZM254.773 165.257H256.114V173.575C256.114 173.954 256.169 174.238 256.279 174.428C256.393 174.613 256.537 174.738 256.711 174.803C256.889 174.863 257.076 174.894 257.273 174.894C257.421 174.894 257.542 174.886 257.637 174.871C257.732 174.852 257.808 174.837 257.864 174.825L258.137 176.03C258.046 176.064 257.919 176.098 257.756 176.132C257.594 176.17 257.387 176.189 257.137 176.189C256.758 176.189 256.387 176.108 256.023 175.945C255.664 175.782 255.364 175.534 255.126 175.2C254.891 174.867 254.773 174.447 254.773 173.939V165.257ZM266.171 169.303L264.966 169.644C264.89 169.443 264.779 169.248 264.631 169.058C264.487 168.865 264.29 168.706 264.04 168.581C263.79 168.456 263.47 168.394 263.08 168.394C262.546 168.394 262.101 168.517 261.744 168.763C261.392 169.005 261.216 169.314 261.216 169.689C261.216 170.022 261.337 170.286 261.58 170.479C261.822 170.672 262.201 170.833 262.716 170.962L264.012 171.28C264.792 171.469 265.373 171.759 265.756 172.149C266.138 172.536 266.33 173.034 266.33 173.644C266.33 174.144 266.186 174.591 265.898 174.985C265.614 175.378 265.216 175.689 264.705 175.916C264.193 176.144 263.599 176.257 262.921 176.257C262.03 176.257 261.294 176.064 260.71 175.678C260.127 175.291 259.758 174.727 259.602 173.985L260.875 173.666C260.996 174.136 261.226 174.488 261.563 174.723C261.904 174.958 262.349 175.075 262.898 175.075C263.523 175.075 264.019 174.943 264.387 174.678C264.758 174.409 264.943 174.087 264.943 173.712C264.943 173.409 264.837 173.155 264.625 172.95C264.413 172.742 264.087 172.587 263.648 172.485L262.193 172.144C261.394 171.954 260.807 171.661 260.432 171.263C260.061 170.861 259.875 170.36 259.875 169.757C259.875 169.265 260.013 168.829 260.29 168.45C260.57 168.072 260.951 167.774 261.432 167.558C261.917 167.342 262.466 167.235 263.08 167.235C263.943 167.235 264.621 167.424 265.114 167.803C265.61 168.181 265.962 168.681 266.171 169.303ZM269.475 176.166C269.195 176.166 268.955 176.066 268.754 175.865C268.553 175.664 268.453 175.424 268.453 175.144C268.453 174.863 268.553 174.623 268.754 174.422C268.955 174.221 269.195 174.121 269.475 174.121C269.756 174.121 269.996 174.221 270.197 174.422C270.398 174.623 270.498 174.863 270.498 175.144C270.498 175.329 270.451 175.5 270.356 175.655C270.265 175.81 270.142 175.935 269.987 176.03C269.835 176.121 269.665 176.166 269.475 176.166ZM287.25 168.075H285.841C285.757 167.67 285.612 167.314 285.403 167.007C285.199 166.7 284.949 166.443 284.653 166.235C284.362 166.022 284.038 165.863 283.682 165.757C283.326 165.651 282.954 165.598 282.568 165.598C281.864 165.598 281.225 165.776 280.653 166.132C280.085 166.488 279.632 167.013 279.295 167.706C278.962 168.399 278.795 169.25 278.795 170.257C278.795 171.265 278.962 172.115 279.295 172.808C279.632 173.502 280.085 174.026 280.653 174.382C281.225 174.738 281.864 174.916 282.568 174.916C282.954 174.916 283.326 174.863 283.682 174.757C284.038 174.651 284.362 174.494 284.653 174.286C284.949 174.074 285.199 173.814 285.403 173.507C285.612 173.197 285.757 172.841 285.841 172.439H287.25C287.144 173.034 286.951 173.566 286.67 174.036C286.39 174.505 286.042 174.905 285.625 175.235C285.208 175.56 284.74 175.808 284.221 175.979C283.706 176.149 283.155 176.235 282.568 176.235C281.576 176.235 280.693 175.992 279.92 175.507C279.148 175.022 278.54 174.333 278.096 173.439C277.653 172.545 277.432 171.485 277.432 170.257C277.432 169.03 277.653 167.969 278.096 167.075C278.54 166.182 279.148 165.492 279.92 165.007C280.693 164.522 281.576 164.28 282.568 164.28C283.155 164.28 283.706 164.365 284.221 164.536C284.74 164.706 285.208 164.956 285.625 165.286C286.042 165.611 286.39 166.009 286.67 166.479C286.951 166.945 287.144 167.477 287.25 168.075ZM290.836 164.439V176.075H289.495V164.439H290.836ZM293.442 176.075V167.348H294.783V176.075H293.442ZM294.124 165.894C293.862 165.894 293.637 165.805 293.448 165.627C293.262 165.449 293.169 165.235 293.169 164.985C293.169 164.735 293.262 164.521 293.448 164.342C293.637 164.164 293.862 164.075 294.124 164.075C294.385 164.075 294.609 164.164 294.794 164.342C294.984 164.521 295.078 164.735 295.078 164.985C295.078 165.235 294.984 165.449 294.794 165.627C294.609 165.805 294.385 165.894 294.124 165.894ZM300.934 176.257C300.116 176.257 299.412 176.064 298.821 175.678C298.23 175.291 297.775 174.759 297.457 174.081C297.139 173.403 296.98 172.628 296.98 171.757C296.98 170.871 297.143 170.089 297.468 169.411C297.798 168.729 298.256 168.197 298.843 167.814C299.434 167.428 300.124 167.235 300.912 167.235C301.525 167.235 302.078 167.348 302.571 167.575C303.063 167.803 303.466 168.121 303.781 168.53C304.095 168.939 304.29 169.416 304.366 169.962H303.025C302.923 169.564 302.696 169.212 302.343 168.905C301.995 168.594 301.525 168.439 300.934 168.439C300.412 168.439 299.953 168.575 299.559 168.848C299.169 169.117 298.864 169.498 298.644 169.99C298.429 170.479 298.321 171.053 298.321 171.712C298.321 172.386 298.427 172.973 298.639 173.473C298.855 173.973 299.158 174.361 299.548 174.638C299.942 174.914 300.404 175.053 300.934 175.053C301.283 175.053 301.599 174.992 301.883 174.871C302.167 174.75 302.408 174.575 302.605 174.348C302.802 174.121 302.942 173.848 303.025 173.53H304.366C304.29 174.045 304.103 174.509 303.804 174.922C303.508 175.331 303.116 175.657 302.627 175.899C302.143 176.138 301.578 176.257 300.934 176.257ZM307.726 172.894L307.704 171.235H307.976L311.794 167.348H313.454L309.385 171.462H309.272L307.726 172.894ZM306.476 176.075V164.439H307.817V176.075H306.476ZM312.022 176.075L308.613 171.757L309.567 170.825L313.726 176.075H312.022ZM323.525 176.257C322.737 176.257 322.046 176.07 321.451 175.695C320.86 175.32 320.398 174.795 320.065 174.121C319.735 173.447 319.57 172.659 319.57 171.757C319.57 170.848 319.735 170.055 320.065 169.377C320.398 168.699 320.86 168.172 321.451 167.797C322.046 167.422 322.737 167.235 323.525 167.235C324.313 167.235 325.002 167.422 325.593 167.797C326.188 168.172 326.65 168.699 326.979 169.377C327.313 170.055 327.479 170.848 327.479 171.757C327.479 172.659 327.313 173.447 326.979 174.121C326.65 174.795 326.188 175.32 325.593 175.695C325.002 176.07 324.313 176.257 323.525 176.257ZM323.525 175.053C324.123 175.053 324.616 174.899 325.002 174.592C325.388 174.286 325.674 173.882 325.86 173.382C326.046 172.882 326.139 172.341 326.139 171.757C326.139 171.174 326.046 170.63 325.86 170.127C325.674 169.623 325.388 169.216 325.002 168.905C324.616 168.594 324.123 168.439 323.525 168.439C322.926 168.439 322.434 168.594 322.048 168.905C321.661 169.216 321.375 169.623 321.19 170.127C321.004 170.63 320.911 171.174 320.911 171.757C320.911 172.341 321.004 172.882 321.19 173.382C321.375 173.882 321.661 174.286 322.048 174.592C322.434 174.899 322.926 175.053 323.525 175.053ZM331.017 170.825V176.075H329.676V167.348H330.972V168.712H331.085C331.29 168.269 331.601 167.913 332.017 167.644C332.434 167.371 332.972 167.235 333.631 167.235C334.222 167.235 334.739 167.356 335.182 167.598C335.625 167.837 335.97 168.2 336.216 168.689C336.462 169.174 336.585 169.788 336.585 170.53V176.075H335.244V170.621C335.244 169.935 335.066 169.401 334.71 169.019C334.354 168.632 333.866 168.439 333.244 168.439C332.816 168.439 332.434 168.532 332.097 168.717C331.763 168.903 331.5 169.174 331.307 169.53C331.114 169.886 331.017 170.318 331.017 170.825ZM347.245 175.28V167.78H348.517V175.28H347.245ZM344.131 172.166V170.894H351.631V172.166H344.131ZM362.978 167.348V168.485H358.455V167.348H362.978ZM359.773 165.257H361.114V173.575C361.114 173.954 361.169 174.238 361.279 174.428C361.393 174.613 361.537 174.738 361.711 174.803C361.889 174.863 362.076 174.894 362.273 174.894C362.421 174.894 362.542 174.886 362.637 174.871C362.732 174.852 362.808 174.837 362.864 174.825L363.137 176.03C363.046 176.064 362.919 176.098 362.756 176.132C362.594 176.17 362.387 176.189 362.137 176.189C361.758 176.189 361.387 176.108 361.023 175.945C360.664 175.782 360.364 175.534 360.126 175.2C359.891 174.867 359.773 174.447 359.773 173.939V165.257ZM368.597 176.257C367.809 176.257 367.118 176.07 366.523 175.695C365.932 175.32 365.47 174.795 365.137 174.121C364.807 173.447 364.642 172.659 364.642 171.757C364.642 170.848 364.807 170.055 365.137 169.377C365.47 168.699 365.932 168.172 366.523 167.797C367.118 167.422 367.809 167.235 368.597 167.235C369.385 167.235 370.074 167.422 370.665 167.797C371.26 168.172 371.722 168.699 372.051 169.377C372.385 170.055 372.551 170.848 372.551 171.757C372.551 172.659 372.385 173.447 372.051 174.121C371.722 174.795 371.26 175.32 370.665 175.695C370.074 176.07 369.385 176.257 368.597 176.257ZM368.597 175.053C369.195 175.053 369.688 174.899 370.074 174.592C370.46 174.286 370.746 173.882 370.932 173.382C371.118 172.882 371.21 172.341 371.21 171.757C371.21 171.174 371.118 170.63 370.932 170.127C370.746 169.623 370.46 169.216 370.074 168.905C369.688 168.594 369.195 168.439 368.597 168.439C367.998 168.439 367.506 168.594 367.119 168.905C366.733 169.216 366.447 169.623 366.262 170.127C366.076 170.63 365.983 171.174 365.983 171.757C365.983 172.341 366.076 172.882 366.262 173.382C366.447 173.882 366.733 174.286 367.119 174.592C367.506 174.899 367.998 175.053 368.597 175.053ZM5.7405 200.257C4.92232 200.257 4.21777 200.064 3.62686 199.678C3.03596 199.291 2.58141 198.759 2.26323 198.081C1.94505 197.403 1.78596 196.628 1.78596 195.757C1.78596 194.871 1.94883 194.089 2.27459 193.411C2.60414 192.729 3.06247 192.197 3.64959 191.814C4.2405 191.428 4.92989 191.235 5.71777 191.235C6.33141 191.235 6.88444 191.348 7.37686 191.575C7.86929 191.803 8.2727 192.121 8.58709 192.53C8.90149 192.939 9.09656 193.416 9.17232 193.962H7.83141C7.72914 193.564 7.50186 193.212 7.14959 192.905C6.80111 192.594 6.33141 192.439 5.7405 192.439C5.21777 192.439 4.75944 192.575 4.3655 192.848C3.97535 193.117 3.67042 193.498 3.45073 193.99C3.23482 194.479 3.12686 195.053 3.12686 195.712C3.12686 196.386 3.23293 196.973 3.44505 197.473C3.66096 197.973 3.96399 198.361 4.35414 198.638C4.74808 198.914 5.2102 199.053 5.7405 199.053C6.08899 199.053 6.40527 198.992 6.68936 198.871C6.97346 198.75 7.21399 198.575 7.41096 198.348C7.60793 198.121 7.74808 197.848 7.83141 197.53H9.17232C9.09656 198.045 8.90906 198.509 8.60982 198.922C8.31436 199.331 7.92232 199.657 7.43368 199.899C6.94883 200.138 6.38444 200.257 5.7405 200.257ZM11.2825 200.075V191.348H12.578V192.666H12.6689C12.828 192.235 13.1159 191.884 13.5325 191.615C13.9492 191.346 14.4189 191.212 14.9416 191.212C15.0401 191.212 15.1632 191.214 15.311 191.217C15.4587 191.221 15.5704 191.227 15.6462 191.235V192.598C15.6007 192.587 15.4966 192.57 15.3337 192.547C15.1746 192.521 15.006 192.507 14.828 192.507C14.4038 192.507 14.025 192.596 13.6916 192.774C13.3621 192.949 13.1007 193.191 12.9075 193.502C12.7182 193.808 12.6235 194.159 12.6235 194.553V200.075H11.2825ZM20.7791 200.257C19.9382 200.257 19.2128 200.072 18.603 199.7C17.9969 199.325 17.5291 198.803 17.1996 198.132C16.8738 197.458 16.711 196.674 16.711 195.78C16.711 194.886 16.8738 194.098 17.1996 193.416C17.5291 192.731 17.9875 192.197 18.5746 191.814C19.1655 191.428 19.8549 191.235 20.6428 191.235C21.0973 191.235 21.5462 191.31 21.9894 191.462C22.4325 191.613 22.836 191.86 23.1996 192.2C23.5632 192.538 23.853 192.985 24.0689 193.541C24.2848 194.098 24.3928 194.784 24.3928 195.598V196.166H17.6655V195.007H23.0291C23.0291 194.515 22.9307 194.075 22.7337 193.689C22.5405 193.303 22.264 192.998 21.9041 192.774C21.5481 192.551 21.1276 192.439 20.6428 192.439C20.1087 192.439 19.6466 192.572 19.2564 192.837C18.87 193.098 18.5727 193.439 18.3644 193.86C18.156 194.28 18.0519 194.731 18.0519 195.212V195.985C18.0519 196.644 18.1655 197.202 18.3928 197.661C18.6238 198.115 18.9439 198.462 19.353 198.7C19.7621 198.935 20.2375 199.053 20.7791 199.053C21.1314 199.053 21.4496 199.003 21.7337 198.905C22.0216 198.803 22.2697 198.651 22.478 198.45C22.6863 198.246 22.8473 197.992 22.961 197.689L24.2564 198.053C24.12 198.492 23.8909 198.878 23.5689 199.212C23.2469 199.541 22.8492 199.799 22.3757 199.985C21.9022 200.166 21.37 200.257 20.7791 200.257ZM29.1507 200.28C28.5977 200.28 28.0958 200.176 27.645 199.967C27.1943 199.755 26.8363 199.45 26.5712 199.053C26.306 198.651 26.1735 198.166 26.1735 197.598C26.1735 197.098 26.2719 196.693 26.4689 196.382C26.6659 196.068 26.9291 195.822 27.2587 195.644C27.5882 195.466 27.9519 195.333 28.3496 195.246C28.7511 195.155 29.1545 195.083 29.5598 195.03C30.0901 194.962 30.52 194.911 30.8496 194.877C31.1829 194.839 31.4254 194.776 31.5769 194.689C31.7322 194.602 31.8098 194.45 31.8098 194.235V194.189C31.8098 193.628 31.6564 193.193 31.3496 192.882C31.0466 192.572 30.5863 192.416 29.9689 192.416C29.3288 192.416 28.8269 192.556 28.4632 192.837C28.0996 193.117 27.8439 193.416 27.6962 193.735L26.4235 193.28C26.6507 192.75 26.9538 192.337 27.3325 192.041C27.7151 191.742 28.1318 191.534 28.5825 191.416C29.0371 191.295 29.4841 191.235 29.9235 191.235C30.2038 191.235 30.5257 191.269 30.8894 191.337C31.2568 191.401 31.611 191.536 31.9519 191.74C32.2966 191.945 32.5825 192.253 32.8098 192.666C33.0371 193.079 33.1507 193.632 33.1507 194.325V200.075H31.8098V198.894H31.7416C31.6507 199.083 31.4992 199.286 31.2871 199.502C31.075 199.717 30.7928 199.901 30.4405 200.053C30.0882 200.204 29.6583 200.28 29.1507 200.28ZM29.3553 199.075C29.8856 199.075 30.3325 198.971 30.6962 198.763C31.0636 198.555 31.3401 198.286 31.5257 197.956C31.7151 197.627 31.8098 197.28 31.8098 196.916V195.689C31.753 195.757 31.628 195.82 31.4348 195.877C31.2454 195.93 31.0257 195.977 30.7757 196.019C30.5295 196.056 30.289 196.091 30.0541 196.121C29.8231 196.147 29.6356 196.17 29.4916 196.189C29.1432 196.235 28.8174 196.308 28.5144 196.411C28.2151 196.509 27.9727 196.659 27.7871 196.86C27.6053 197.056 27.5144 197.325 27.5144 197.666C27.5144 198.132 27.6867 198.485 28.0314 198.723C28.3799 198.958 28.8212 199.075 29.3553 199.075ZM39.5436 191.348V192.485H35.0209V191.348H39.5436ZM36.3391 189.257H37.68V197.575C37.68 197.954 37.7349 198.238 37.8448 198.428C37.9584 198.613 38.1023 198.738 38.2766 198.803C38.4546 198.863 38.6421 198.894 38.8391 198.894C38.9868 198.894 39.108 198.886 39.2027 198.871C39.2974 198.852 39.3732 198.837 39.43 198.825L39.7027 200.03C39.6118 200.064 39.4849 200.098 39.322 200.132C39.1592 200.17 38.9527 200.189 38.7027 200.189C38.3239 200.189 37.9527 200.108 37.5891 199.945C37.2292 199.782 36.93 199.534 36.6914 199.2C36.4565 198.867 36.3391 198.447 36.3391 197.939V189.257ZM45.276 200.257C44.4351 200.257 43.7097 200.072 43.0999 199.7C42.4938 199.325 42.026 198.803 41.6965 198.132C41.3707 197.458 41.2078 196.674 41.2078 195.78C41.2078 194.886 41.3707 194.098 41.6965 193.416C42.026 192.731 42.4843 192.197 43.0715 191.814C43.6624 191.428 44.3518 191.235 45.1396 191.235C45.5942 191.235 46.0431 191.31 46.4862 191.462C46.9294 191.613 47.3328 191.86 47.6965 192.2C48.0601 192.538 48.3499 192.985 48.5658 193.541C48.7817 194.098 48.8896 194.784 48.8896 195.598V196.166H42.1624V195.007H47.526C47.526 194.515 47.4275 194.075 47.2306 193.689C47.0374 193.303 46.7609 192.998 46.401 192.774C46.045 192.551 45.6245 192.439 45.1396 192.439C44.6056 192.439 44.1434 192.572 43.7533 192.837C43.3669 193.098 43.0696 193.439 42.8612 193.86C42.6529 194.28 42.5487 194.731 42.5487 195.212V195.985C42.5487 196.644 42.6624 197.202 42.8896 197.661C43.1207 198.115 43.4408 198.462 43.8499 198.7C44.259 198.935 44.7343 199.053 45.276 199.053C45.6283 199.053 45.9465 199.003 46.2306 198.905C46.5184 198.803 46.7665 198.651 46.9749 198.45C47.1832 198.246 47.3442 197.992 47.4578 197.689L48.7533 198.053C48.6169 198.492 48.3878 198.878 48.0658 199.212C47.7438 199.541 47.3461 199.799 46.8726 199.985C46.3991 200.166 45.8669 200.257 45.276 200.257ZM57.0703 194.825V200.075H55.7294V191.348H57.0249V192.712H57.1385C57.3431 192.269 57.6537 191.913 58.0703 191.644C58.487 191.371 59.0249 191.235 59.684 191.235C60.2749 191.235 60.7919 191.356 61.2351 191.598C61.6783 191.837 62.023 192.2 62.2692 192.689C62.5154 193.174 62.6385 193.788 62.6385 194.53V200.075H61.2976V194.621C61.2976 193.935 61.1196 193.401 60.7635 193.019C60.4075 192.632 59.9188 192.439 59.2976 192.439C58.8696 192.439 58.487 192.532 58.1499 192.717C57.8165 192.903 57.5533 193.174 57.3601 193.53C57.1669 193.886 57.0703 194.318 57.0703 194.825ZM68.8979 200.257C68.057 200.257 67.3316 200.072 66.7218 199.7C66.1157 199.325 65.6479 198.803 65.3183 198.132C64.9926 197.458 64.8297 196.674 64.8297 195.78C64.8297 194.886 64.9926 194.098 65.3183 193.416C65.6479 192.731 66.1062 192.197 66.6933 191.814C67.2843 191.428 67.9736 191.235 68.7615 191.235C69.2161 191.235 69.6649 191.31 70.1081 191.462C70.5513 191.613 70.9547 191.86 71.3183 192.2C71.682 192.538 71.9718 192.985 72.1877 193.541C72.4036 194.098 72.5115 194.784 72.5115 195.598V196.166H65.7843V195.007H71.1479C71.1479 194.515 71.0494 194.075 70.8524 193.689C70.6593 193.303 70.3827 192.998 70.0229 192.774C69.6668 192.551 69.2464 192.439 68.7615 192.439C68.2274 192.439 67.7653 192.572 67.3752 192.837C66.9888 193.098 66.6914 193.439 66.4831 193.86C66.2748 194.28 66.1706 194.731 66.1706 195.212V195.985C66.1706 196.644 66.2843 197.202 66.5115 197.661C66.7426 198.115 67.0627 198.462 67.4718 198.7C67.8808 198.935 68.3562 199.053 68.8979 199.053C69.2502 199.053 69.5683 199.003 69.8524 198.905C70.1403 198.803 70.3884 198.651 70.5968 198.45C70.8051 198.246 70.9661 197.992 71.0797 197.689L72.3752 198.053C72.2388 198.492 72.0096 198.878 71.6877 199.212C71.3657 199.541 70.968 199.799 70.4945 199.985C70.021 200.166 69.4888 200.257 68.8979 200.257ZM76.6786 200.075L74.0195 191.348H75.4286L77.3149 198.03H77.4058L79.2695 191.348H80.7013L82.5422 198.007H82.6331L84.5195 191.348H85.9286L83.2695 200.075H81.9513L80.0422 193.371H79.9058L77.9967 200.075H76.6786ZM96.0468 200.257C95.2286 200.257 94.524 200.064 93.9331 199.678C93.3422 199.291 92.8877 198.759 92.5695 198.081C92.2513 197.403 92.0922 196.628 92.0922 195.757C92.0922 194.871 92.2551 194.089 92.5808 193.411C92.9104 192.729 93.3687 192.197 93.9558 191.814C94.5468 191.428 95.2361 191.235 96.024 191.235C96.6377 191.235 97.1907 191.348 97.6831 191.575C98.1755 191.803 98.5789 192.121 98.8933 192.53C99.2077 192.939 99.4028 193.416 99.4786 193.962H98.1377C98.0354 193.564 97.8081 193.212 97.4558 192.905C97.1074 192.594 96.6377 192.439 96.0468 192.439C95.524 192.439 95.0657 192.575 94.6718 192.848C94.2816 193.117 93.9767 193.498 93.757 193.99C93.5411 194.479 93.4331 195.053 93.4331 195.712C93.4331 196.386 93.5392 196.973 93.7513 197.473C93.9672 197.973 94.2702 198.361 94.6604 198.638C95.0543 198.914 95.5164 199.053 96.0468 199.053C96.3952 199.053 96.7115 198.992 96.9956 198.871C97.2797 198.75 97.5202 198.575 97.7172 198.348C97.9142 198.121 98.0543 197.848 98.1377 197.53H99.4786C99.4028 198.045 99.2153 198.509 98.9161 198.922C98.6206 199.331 98.2286 199.657 97.7399 199.899C97.2551 200.138 96.6907 200.257 96.0468 200.257ZM105.134 200.257C104.346 200.257 103.655 200.07 103.06 199.695C102.469 199.32 102.007 198.795 101.674 198.121C101.344 197.447 101.18 196.659 101.18 195.757C101.18 194.848 101.344 194.055 101.674 193.377C102.007 192.699 102.469 192.172 103.06 191.797C103.655 191.422 104.346 191.235 105.134 191.235C105.922 191.235 106.612 191.422 107.202 191.797C107.797 192.172 108.259 192.699 108.589 193.377C108.922 194.055 109.089 194.848 109.089 195.757C109.089 196.659 108.922 197.447 108.589 198.121C108.259 198.795 107.797 199.32 107.202 199.695C106.612 200.07 105.922 200.257 105.134 200.257ZM105.134 199.053C105.733 199.053 106.225 198.899 106.612 198.592C106.998 198.286 107.284 197.882 107.469 197.382C107.655 196.882 107.748 196.341 107.748 195.757C107.748 195.174 107.655 194.63 107.469 194.127C107.284 193.623 106.998 193.216 106.612 192.905C106.225 192.594 105.733 192.439 105.134 192.439C104.536 192.439 104.043 192.594 103.657 192.905C103.271 193.216 102.985 193.623 102.799 194.127C102.613 194.63 102.521 195.174 102.521 195.757C102.521 196.341 102.613 196.882 102.799 197.382C102.985 197.882 103.271 198.286 103.657 198.592C104.043 198.899 104.536 199.053 105.134 199.053ZM112.627 194.825V200.075H111.286V191.348H112.581V192.712H112.695C112.899 192.269 113.21 191.913 113.627 191.644C114.043 191.371 114.581 191.235 115.24 191.235C115.831 191.235 116.348 191.356 116.791 191.598C117.235 191.837 117.579 192.2 117.825 192.689C118.072 193.174 118.195 193.788 118.195 194.53V200.075H116.854V194.621C116.854 193.935 116.676 193.401 116.32 193.019C115.964 192.632 115.475 192.439 114.854 192.439C114.426 192.439 114.043 192.532 113.706 192.717C113.373 192.903 113.11 193.174 112.916 193.53C112.723 193.886 112.627 194.318 112.627 194.825ZM124.59 191.348V192.485H120.068V191.348H124.59ZM121.386 189.257H122.727V197.575C122.727 197.954 122.782 198.238 122.892 198.428C123.005 198.613 123.149 198.738 123.323 198.803C123.501 198.863 123.689 198.894 123.886 198.894C124.034 198.894 124.155 198.886 124.25 198.871C124.344 198.852 124.42 198.837 124.477 198.825L124.75 200.03C124.659 200.064 124.532 200.098 124.369 200.132C124.206 200.17 124 200.189 123.75 200.189C123.371 200.189 123 200.108 122.636 199.945C122.276 199.782 121.977 199.534 121.738 199.2C121.503 198.867 121.386 198.447 121.386 197.939V189.257ZM129.326 200.28C128.773 200.28 128.271 200.176 127.82 199.967C127.369 199.755 127.011 199.45 126.746 199.053C126.481 198.651 126.348 198.166 126.348 197.598C126.348 197.098 126.447 196.693 126.644 196.382C126.841 196.068 127.104 195.822 127.434 195.644C127.763 195.466 128.127 195.333 128.525 195.246C128.926 195.155 129.33 195.083 129.735 195.03C130.265 194.962 130.695 194.911 131.025 194.877C131.358 194.839 131.6 194.776 131.752 194.689C131.907 194.602 131.985 194.45 131.985 194.235V194.189C131.985 193.628 131.831 193.193 131.525 192.882C131.222 192.572 130.761 192.416 130.144 192.416C129.504 192.416 129.002 192.556 128.638 192.837C128.275 193.117 128.019 193.416 127.871 193.735L126.598 193.28C126.826 192.75 127.129 192.337 127.508 192.041C127.89 191.742 128.307 191.534 128.758 191.416C129.212 191.295 129.659 191.235 130.098 191.235C130.379 191.235 130.701 191.269 131.064 191.337C131.432 191.401 131.786 191.536 132.127 191.74C132.472 191.945 132.758 192.253 132.985 192.666C133.212 193.079 133.326 193.632 133.326 194.325V200.075H131.985V198.894H131.917C131.826 199.083 131.674 199.286 131.462 199.502C131.25 199.717 130.968 199.901 130.616 200.053C130.263 200.204 129.833 200.28 129.326 200.28ZM129.53 199.075C130.061 199.075 130.508 198.971 130.871 198.763C131.239 198.555 131.515 198.286 131.701 197.956C131.89 197.627 131.985 197.28 131.985 196.916V195.689C131.928 195.757 131.803 195.82 131.61 195.877C131.42 195.93 131.201 195.977 130.951 196.019C130.705 196.056 130.464 196.091 130.229 196.121C129.998 196.147 129.811 196.17 129.667 196.189C129.318 196.235 128.992 196.308 128.689 196.411C128.39 196.509 128.148 196.659 127.962 196.86C127.78 197.056 127.689 197.325 127.689 197.666C127.689 198.132 127.862 198.485 128.206 198.723C128.555 198.958 128.996 199.075 129.53 199.075ZM139.469 200.257C138.65 200.257 137.946 200.064 137.355 199.678C136.764 199.291 136.31 198.759 135.991 198.081C135.673 197.403 135.514 196.628 135.514 195.757C135.514 194.871 135.677 194.089 136.003 193.411C136.332 192.729 136.791 192.197 137.378 191.814C137.969 191.428 138.658 191.235 139.446 191.235C140.06 191.235 140.613 191.348 141.105 191.575C141.597 191.803 142.001 192.121 142.315 192.53C142.63 192.939 142.825 193.416 142.9 193.962H141.56C141.457 193.564 141.23 193.212 140.878 192.905C140.529 192.594 140.06 192.439 139.469 192.439C138.946 192.439 138.488 192.575 138.094 192.848C137.703 193.117 137.399 193.498 137.179 193.99C136.963 194.479 136.855 195.053 136.855 195.712C136.855 196.386 136.961 196.973 137.173 197.473C137.389 197.973 137.692 198.361 138.082 198.638C138.476 198.914 138.938 199.053 139.469 199.053C139.817 199.053 140.133 198.992 140.417 198.871C140.702 198.75 140.942 198.575 141.139 198.348C141.336 198.121 141.476 197.848 141.56 197.53H142.9C142.825 198.045 142.637 198.509 142.338 198.922C142.042 199.331 141.65 199.657 141.162 199.899C140.677 200.138 140.113 200.257 139.469 200.257ZM148.806 191.348V192.485H144.283V191.348H148.806ZM145.602 189.257H146.942V197.575C146.942 197.954 146.997 198.238 147.107 198.428C147.221 198.613 147.365 198.738 147.539 198.803C147.717 198.863 147.905 198.894 148.102 198.894C148.249 198.894 148.371 198.886 148.465 198.871C148.56 198.852 148.636 198.837 148.692 198.825L148.965 200.03C148.874 200.064 148.747 200.098 148.585 200.132C148.422 200.17 148.215 200.189 147.965 200.189C147.586 200.189 147.215 200.108 146.852 199.945C146.492 199.782 146.192 199.534 145.954 199.2C145.719 198.867 145.602 198.447 145.602 197.939V189.257ZM156.999 193.303L155.794 193.644C155.718 193.443 155.607 193.248 155.459 193.058C155.315 192.865 155.118 192.706 154.868 192.581C154.618 192.456 154.298 192.394 153.908 192.394C153.374 192.394 152.929 192.517 152.573 192.763C152.22 193.005 152.044 193.314 152.044 193.689C152.044 194.022 152.165 194.286 152.408 194.479C152.65 194.672 153.029 194.833 153.544 194.962L154.84 195.28C155.62 195.469 156.201 195.759 156.584 196.149C156.967 196.536 157.158 197.034 157.158 197.644C157.158 198.144 157.014 198.591 156.726 198.985C156.442 199.378 156.044 199.689 155.533 199.916C155.021 200.144 154.427 200.257 153.749 200.257C152.859 200.257 152.122 200.064 151.539 199.678C150.955 199.291 150.586 198.727 150.431 197.985L151.703 197.666C151.824 198.136 152.054 198.488 152.391 198.723C152.732 198.958 153.177 199.075 153.726 199.075C154.351 199.075 154.847 198.943 155.215 198.678C155.586 198.409 155.771 198.087 155.771 197.712C155.771 197.409 155.665 197.155 155.453 196.95C155.241 196.742 154.915 196.587 154.476 196.485L153.021 196.144C152.222 195.954 151.635 195.661 151.26 195.263C150.889 194.861 150.703 194.36 150.703 193.757C150.703 193.265 150.842 192.829 151.118 192.45C151.398 192.072 151.779 191.774 152.26 191.558C152.745 191.342 153.294 191.235 153.908 191.235C154.771 191.235 155.449 191.424 155.942 191.803C156.438 192.181 156.79 192.681 156.999 193.303Z" fill="black" fill-opacity="0.87"/>
<defs>
<clipPath id="clip0_3083_10046">
<rect width="176" height="150" fill="white" transform="translate(110.5 0.0754395)"/>
</clipPath>
</defs>
</svg>
