<svg width="581" height="322" viewBox="0 0 581 322" fill="none" xmlns="http://www.w3.org/2000/svg">
<g clip-path="url(#clip0_1681_2492)">
<path opacity="0.1" d="M454.372 194.431C445.337 148.873 392.408 112.462 382.084 64.9877C363.322 4.58743 301.478 -4.96196 261.291 21.2698C197.614 62.8345 265.544 73.1491 140.695 171.489C109.867 195.77 119.69 302.957 216.673 278.358C268.865 265.12 284.732 263.262 308.208 261.082C367.381 255.589 469.537 270.906 454.372 194.431Z" fill="#3568E5"/>
<path d="M383.682 205.849L292.224 254.153L200.905 205.849V132.907H383.682V205.849Z" fill="white"/>
<path d="M292.224 254.893C292.103 254.894 291.984 254.864 291.878 254.807L200.561 206.503C200.442 206.441 200.343 206.347 200.273 206.232C200.204 206.117 200.167 205.986 200.166 205.851V132.907C200.166 132.71 200.244 132.522 200.383 132.383C200.522 132.244 200.711 132.166 200.907 132.166H383.682C383.879 132.166 384.067 132.244 384.206 132.383C384.345 132.522 384.423 132.71 384.423 132.907V205.849C384.423 205.983 384.386 206.115 384.316 206.23C384.246 206.345 384.147 206.438 384.028 206.501L292.571 254.805C292.464 254.862 292.345 254.893 292.224 254.893ZM201.646 205.404L292.224 253.315L382.941 205.403V133.648H201.646V205.404Z" fill="#262626"/>
<path d="M383.682 117.255L292.224 68.951L333.322 49.1416L424.78 97.4457L383.682 117.255Z" fill="white"/>
<path d="M383.682 117.996C383.561 117.996 383.443 117.966 383.336 117.91L291.878 69.6061C291.757 69.542 291.656 69.4455 291.586 69.3274C291.517 69.2093 291.481 69.0743 291.484 68.9372C291.486 68.8001 291.527 68.6665 291.601 68.551C291.675 68.4356 291.779 68.3429 291.902 68.2832L333 48.4738C333.105 48.4231 333.219 48.3979 333.336 48.4C333.452 48.4022 333.566 48.4317 333.668 48.4862L425.126 96.7904C425.247 96.8544 425.348 96.9508 425.418 97.0688C425.487 97.1869 425.523 97.3219 425.52 97.459C425.518 97.596 425.477 97.7297 425.403 97.8451C425.329 97.9605 425.225 98.0531 425.102 98.1126L384.004 117.922C383.904 117.971 383.794 117.996 383.682 117.996ZM293.868 68.9802L383.697 116.424L423.136 97.4145L333.307 49.9721L293.868 68.9802Z" fill="#262626"/>
<path d="M200.905 117.255L292.363 68.951L251.265 49.1416L159.807 97.4457L200.905 117.255Z" fill="white"/>
<path d="M200.905 117.996C200.793 117.996 200.683 117.97 200.583 117.922L159.488 98.1126C159.364 98.0531 159.26 97.9605 159.186 97.8451C159.112 97.7297 159.071 97.596 159.069 97.459C159.066 97.3219 159.102 97.1869 159.171 97.0688C159.241 96.9508 159.342 96.8544 159.463 96.7904L250.921 48.4862C251.024 48.4317 251.137 48.4022 251.254 48.4C251.37 48.3979 251.485 48.4231 251.589 48.4738L292.687 68.2832C292.81 68.3429 292.915 68.4356 292.988 68.551C293.062 68.6665 293.103 68.8001 293.105 68.9372C293.108 69.0743 293.072 69.2093 293.003 69.3274C292.933 69.4455 292.832 69.542 292.711 69.6061L201.253 117.91C201.146 117.967 201.026 117.996 200.905 117.996ZM161.451 97.4156L200.889 116.425L290.719 68.9814L251.28 49.9721L161.451 97.4156Z" fill="#262626"/>
<path d="M200.905 117.255L292.362 165.559L245.338 191.294L153.88 142.991L200.905 117.255Z" fill="white"/>
<path d="M245.338 192.035C245.217 192.035 245.099 192.006 244.992 191.949L153.534 143.645C153.416 143.583 153.317 143.489 153.248 143.375C153.178 143.261 153.141 143.13 153.14 142.996C153.139 142.862 153.175 142.731 153.242 142.616C153.31 142.5 153.407 142.406 153.525 142.341L200.549 116.605C200.657 116.546 200.777 116.515 200.899 116.514C201.022 116.513 201.143 116.543 201.251 116.6L292.709 164.904C292.827 164.967 292.926 165.06 292.995 165.175C293.064 165.289 293.101 165.42 293.102 165.553C293.103 165.687 293.068 165.819 293.001 165.934C292.933 166.049 292.835 166.144 292.718 166.208L245.694 191.945C245.585 192.004 245.462 192.035 245.338 192.035ZM155.445 142.979L245.332 190.453L290.798 165.57L200.911 118.096L155.445 142.979Z" fill="#262626"/>
<path d="M383.682 117.255L292.224 165.559L339.249 191.294L430.707 142.991L383.682 117.255Z" fill="white"/>
<path d="M339.25 192.035C339.126 192.035 339.003 192.004 338.894 191.945L291.87 166.208C291.753 166.144 291.655 166.049 291.587 165.934C291.52 165.819 291.485 165.687 291.486 165.553C291.487 165.42 291.524 165.289 291.593 165.175C291.662 165.06 291.761 164.967 291.879 164.904L383.337 116.6C383.445 116.543 383.566 116.513 383.689 116.514C383.811 116.515 383.931 116.546 384.039 116.605L431.063 142.341C431.181 142.406 431.278 142.5 431.346 142.616C431.413 142.731 431.449 142.862 431.448 142.996C431.447 143.13 431.41 143.261 431.34 143.375C431.271 143.489 431.172 143.583 431.054 143.645L339.596 191.949C339.489 192.006 339.371 192.035 339.25 192.035ZM293.791 165.57L339.257 190.453L429.144 142.979L383.677 118.096L293.791 165.57Z" fill="#262626"/>
<path d="M292.363 68.9512L200.905 117.255L292.224 165.559L383.682 117.255L292.363 68.9512Z" fill="#262626"/>
<path d="M292.965 165.558H291.484V254.153H292.965V165.558Z" fill="#262626"/>
<path d="M240.982 112.869C240.86 112.869 240.74 112.831 240.64 112.759C240.512 112.668 240.425 112.53 240.399 112.375C240.372 112.22 240.409 112.061 240.499 111.933C240.609 111.778 251.321 96.2926 239.363 82.1747C237.246 79.663 234.606 77.6445 231.627 76.2607C228.648 74.8769 225.403 74.1613 222.118 74.164H221.957C223.093 78.1089 222.89 81.6164 221.282 84.3072C220.597 85.5231 219.586 86.5236 218.363 87.1959C217.14 87.8681 215.753 88.1855 214.359 88.1123C213.206 88.0178 212.105 87.5889 211.191 86.8781C210.277 86.1673 209.591 85.2055 209.216 84.1105C207.9 80.68 209.275 77.3538 212.897 75.2101C215.192 73.9445 217.742 73.2111 220.359 73.0639C219.507 70.8072 218.401 68.6553 217.06 66.6504C212.742 60.0562 204.873 55.4913 195.469 54.1263C187.5 52.97 179.863 54.332 176.01 57.5954C175.89 57.6969 175.734 57.7466 175.577 57.7335C175.421 57.7205 175.276 57.6457 175.174 57.5257C175.073 57.4057 175.023 57.2503 175.036 57.0936C175.049 56.9369 175.124 56.7919 175.244 56.6903C179.344 53.2178 187.349 51.7497 195.639 52.9564C205.379 54.3705 213.548 59.1257 218.052 66.0038C219.512 68.1852 220.7 70.5371 221.589 73.007C225.132 72.9219 228.649 73.6328 231.882 75.0873C235.114 76.5418 237.978 78.7029 240.264 81.4114C252.825 96.2398 241.578 112.459 241.463 112.622C241.408 112.698 241.336 112.76 241.253 112.803C241.169 112.846 241.076 112.869 240.982 112.869ZM220.743 74.2072C218.207 74.3154 215.729 75.0079 213.504 76.2307C210.377 78.081 209.219 80.7991 210.325 83.6867C210.625 84.5715 211.176 85.3497 211.911 85.9261C212.646 86.5025 213.534 86.8522 214.464 86.9322C215.636 86.9847 216.8 86.7102 217.825 86.1393C218.849 85.5685 219.695 84.7238 220.267 83.6997C221.743 81.2282 221.878 77.9429 220.742 74.2072H220.743Z" fill="#292A2E"/>
<path d="M165.78 67.1516C164.773 67.4541 163.688 67.3516 162.755 66.8658C161.822 66.38 161.116 65.5492 160.787 64.5505C160.457 63.5517 160.531 62.4639 160.991 61.5185C161.452 60.5732 162.264 59.845 163.253 59.4891C164.243 59.1332 165.332 59.1777 166.29 59.613C167.247 60.0483 167.997 60.8402 168.379 61.8199C168.761 62.7997 168.746 63.8899 168.336 64.8585C167.926 65.8271 167.155 66.5975 166.186 67.0058C166.053 67.0617 165.918 67.1104 165.78 67.1516ZM163.81 60.5656C163.714 60.5945 163.619 60.6285 163.527 60.6676C162.845 60.9551 162.302 61.4975 162.014 62.1793C161.726 62.8611 161.716 63.6283 161.985 64.3176C162.255 65.0069 162.783 65.5639 163.456 65.8697C164.13 66.1756 164.897 66.2063 165.593 65.9553C166.289 65.7042 166.86 65.1913 167.184 64.5257C167.507 63.8601 167.558 63.0945 167.326 62.3919C167.093 61.6893 166.596 61.1052 165.939 60.7641C165.282 60.423 164.518 60.3518 163.81 60.5656Z" fill="#292A2E"/>
<path d="M165.773 57.8639C164.82 58.1484 163.796 58.0706 162.897 57.6456C161.998 57.2205 161.288 56.4782 160.903 55.5613C160.595 54.8263 160.512 54.0162 160.664 53.2337C160.815 52.4512 161.196 51.7313 161.757 51.165C162.318 50.5988 163.035 50.2117 163.816 50.0527C164.597 49.8937 165.408 49.9699 166.146 50.2716C166.883 50.5734 167.515 51.0872 167.961 51.748C168.407 52.4088 168.647 53.187 168.65 53.9842C168.654 54.7813 168.421 55.5616 167.981 56.2264C167.541 56.8911 166.914 57.4104 166.178 57.7187C166.046 57.7741 165.911 57.8226 165.773 57.8639ZM163.805 51.2774C163.708 51.3065 163.612 51.3407 163.518 51.3799C162.823 51.672 162.272 52.2281 161.987 52.9262C161.701 53.6242 161.705 54.4071 161.996 55.1026C162.209 55.6096 162.564 56.0441 163.018 56.3536C163.473 56.6631 164.007 56.8343 164.557 56.8466C165.106 56.8588 165.648 56.7115 166.115 56.4225C166.583 56.1335 166.957 55.7151 167.192 55.2181C167.427 54.721 167.513 54.1665 167.439 53.6217C167.366 53.0769 167.136 52.565 166.778 52.1481C166.419 51.7311 165.948 51.4269 165.42 51.2723C164.893 51.1177 164.331 51.1198 163.805 51.2774Z" fill="#292A2E"/>
<path d="M164.623 62.0556C167.533 62.0556 169.893 60.4796 169.893 58.5356C169.893 56.5916 167.533 55.0156 164.623 55.0156C161.712 55.0156 159.353 56.5916 159.353 58.5356C159.353 60.4796 161.712 62.0556 164.623 62.0556Z" fill="white"/>
<path d="M166.956 62.3144C166.2 62.5377 165.416 62.6503 164.628 62.6487C161.34 62.6487 158.76 60.8469 158.76 58.5407C158.76 56.2346 161.332 54.4263 164.619 54.4227C166.052 54.3953 167.462 54.7866 168.676 55.5489C169.221 55.8329 169.678 56.2609 169.997 56.7863C170.316 57.3118 170.485 57.9146 170.486 58.5293C170.487 59.1441 170.319 59.7472 170 60.2732C169.682 60.7993 169.226 61.2281 168.682 61.5131C168.149 61.8641 167.567 62.1342 166.956 62.3144ZM162.651 55.8902C161.068 56.3644 159.945 57.388 159.946 58.5378C159.946 60.1244 162.09 61.4633 164.628 61.4609C165.827 61.4862 167.008 61.1616 168.025 60.5268C168.407 60.3511 168.73 60.0695 168.957 59.7155C169.183 59.3615 169.303 58.95 169.303 58.5298C169.303 58.1096 169.182 57.6983 168.955 57.3448C168.728 56.9912 168.404 56.7102 168.022 56.5351C167.003 55.9017 165.822 55.5791 164.623 55.6069C163.956 55.6052 163.292 55.7006 162.651 55.8902Z" fill="#292A2E"/>
<path d="M165.915 61.948L165.791 55.1024L164.089 55.0337L163.969 62.028L165.915 61.948Z" fill="#292A2E"/>
<path d="M157.631 60.0247C157.931 60.0247 158.175 59.7811 158.175 59.4806C158.175 59.1801 157.931 58.9365 157.631 58.9365C157.33 58.9365 157.087 59.1801 157.087 59.4806C157.087 59.7811 157.33 60.0247 157.631 60.0247Z" fill="#292A2E"/>
<path d="M158.056 57.1136C158.356 57.1136 158.6 56.87 158.6 56.5695C158.6 56.269 158.356 56.0254 158.056 56.0254C157.755 56.0254 157.512 56.269 157.512 56.5695C157.512 56.87 157.755 57.1136 158.056 57.1136Z" fill="#292A2E"/>
<path d="M334.109 78.6888C333.982 78.6888 333.858 78.648 333.756 78.5726C333.654 78.4972 333.579 78.391 333.542 78.2697C331.576 70.9285 331.051 63.2759 331.997 55.7351C333.529 44.7111 339.609 30.243 359.872 23.9078C362.723 22.9911 365.647 22.3207 368.612 21.9039C369.567 15.9408 373.199 9.47223 381.322 5.00929C400.621 -5.5951 413.657 3.91933 413.787 4.01653C413.912 4.11085 413.995 4.25125 414.018 4.40686C414.04 4.56248 413.999 4.72054 413.905 4.8463C413.811 4.97205 413.67 5.05518 413.515 5.07741C413.359 5.09965 413.201 5.05915 413.075 4.96483C412.952 4.87237 400.494 -4.17264 381.893 6.04886C374.303 10.2196 370.829 16.2058 369.841 21.7628C378.778 20.8827 383.058 23.8639 384.979 26.1155C386.167 27.4695 386.931 29.1433 387.175 30.9283C387.419 32.7134 387.132 34.5307 386.35 36.1539C385.733 37.4659 384.732 38.5596 383.479 39.2907C382.227 40.0218 380.782 40.3559 379.336 40.2488C374.345 39.956 370.215 35.7574 368.815 29.5519C368.353 27.4513 368.23 25.2903 368.451 23.1509C365.661 23.5516 362.91 24.1842 360.226 25.0422C344.434 29.9798 335.333 40.3632 333.171 55.9017C332.245 63.2713 332.755 70.7507 334.675 77.926C334.702 78.0146 334.708 78.1083 334.693 78.1997C334.677 78.2911 334.64 78.3775 334.585 78.452C334.53 78.5265 334.458 78.5871 334.375 78.6288C334.293 78.6706 334.201 78.6923 334.109 78.6923V78.6888ZM369.659 23.0027C369.412 25.1014 369.518 27.2266 369.971 29.2905C371.252 34.9673 374.955 38.8038 379.405 39.0652C380.618 39.1521 381.829 38.8703 382.879 38.2569C383.929 37.6434 384.77 36.7269 385.29 35.6276C385.967 34.2121 386.213 32.6286 385.998 31.0742C385.782 29.5198 385.113 28.0633 384.076 26.886C381.304 23.6339 376.247 22.3205 369.659 23.0027Z" fill="#292A2E"/>
<path d="M427.593 10.007C426.794 10.0053 426.013 9.77792 425.338 9.3511C424.664 8.92427 424.124 8.31539 423.78 7.59473C423.437 6.87406 423.304 6.07099 423.398 5.2782C423.491 4.48542 423.807 3.73522 424.309 3.11421C424.81 2.4932 425.477 2.02669 426.233 1.76851C426.988 1.51033 427.801 1.47102 428.578 1.6551C429.355 1.83919 430.063 2.23917 430.623 2.80888C431.182 3.37859 431.568 4.09481 431.738 4.87488C431.871 5.49324 431.864 6.13349 431.717 6.74874C431.571 7.36399 431.288 7.93867 430.891 8.43069C430.493 8.92271 429.991 9.31962 429.42 9.59236C428.85 9.8651 428.225 10.0068 427.593 10.007ZM427.602 2.72638C426.971 2.72637 426.356 2.92188 425.842 3.28597C425.327 3.65006 424.938 4.1648 424.728 4.75925C424.518 5.3537 424.498 5.9986 424.67 6.60506C424.842 7.21151 425.198 7.74968 425.689 8.14537C426.18 8.54106 426.781 8.77481 427.41 8.81439C428.039 8.85398 428.665 8.69745 429.202 8.36638C429.738 8.03531 430.159 7.546 430.406 6.96589C430.652 6.38578 430.713 5.74343 430.579 5.12736C430.435 4.44576 430.06 3.8348 429.517 3.39745C428.975 2.9601 428.298 2.7231 427.602 2.72638Z" fill="#292A2E"/>
<path d="M425.808 19.6801C424.722 19.68 423.677 19.2635 422.888 18.5162C422.1 17.769 421.628 16.7479 421.57 15.6632C421.511 14.5784 421.871 13.5126 422.575 12.6851C423.279 11.8577 424.273 11.3315 425.353 11.2149C426.433 11.0984 427.517 11.4003 428.381 12.0586C429.245 12.7169 429.824 13.6814 429.998 14.7536C430.173 15.8258 429.929 16.9241 429.318 17.8224C428.708 18.7206 427.775 19.3505 426.714 19.5823C426.417 19.6473 426.113 19.6801 425.808 19.6801ZM425.823 12.3989C425.604 12.399 425.385 12.4227 425.171 12.4695C424.414 12.6357 423.749 13.0859 423.314 13.7272C422.879 14.3686 422.706 15.1524 422.831 15.9174C422.956 16.6824 423.369 17.3704 423.986 17.8398C424.603 18.3092 425.376 18.5244 426.147 18.441C426.917 18.3576 427.627 17.9821 428.129 17.3916C428.631 16.8011 428.888 16.0406 428.846 15.2666C428.805 14.4926 428.468 13.7639 427.906 13.2305C427.343 12.697 426.598 12.3995 425.823 12.3989Z" fill="#292A2E"/>
<path d="M432.173 11.7383C432.547 9.71387 430.393 7.61933 427.362 7.06003C424.331 6.50073 421.571 7.68846 421.197 9.71288C420.824 11.7373 422.978 13.8318 426.009 14.3911C429.04 14.9504 431.8 13.7627 432.173 11.7383Z" fill="white"/>
<path d="M427.501 15.123C426.965 15.1221 426.429 15.0725 425.901 14.9748C424.41 14.7275 423.024 14.0507 421.913 13.0273C421.426 12.6121 421.052 12.0811 420.825 11.4831C420.598 10.8852 420.526 10.2397 420.614 9.60626C420.758 8.98299 421.056 8.40594 421.481 7.9284C421.907 7.45085 422.446 7.08821 423.048 6.87396C424.458 6.34148 425.987 6.20458 427.469 6.47806C428.951 6.75155 430.33 7.42501 431.457 8.42562C431.943 8.84073 432.318 9.3718 432.544 9.96975C432.771 10.5677 432.844 11.2132 432.756 11.8466C432.612 12.4699 432.314 13.0469 431.888 13.5245C431.463 14.002 430.924 14.3647 430.321 14.5789C429.428 14.9488 428.468 15.1338 427.501 15.123ZM425.864 7.51407C425.06 7.50383 424.261 7.65644 423.517 7.96273C423.095 8.1037 422.716 8.3475 422.413 8.67204C422.11 8.99658 421.892 9.39162 421.78 9.8214C421.731 10.2629 421.794 10.7095 421.961 11.1209C422.129 11.5322 422.396 11.8954 422.739 12.1773C423.698 13.0141 424.864 13.5775 426.115 13.8085C427.367 14.0395 428.657 13.9295 429.851 13.4901C430.273 13.3492 430.652 13.1054 430.955 12.7808C431.258 12.4563 431.476 12.0613 431.588 11.6315C431.637 11.19 431.575 10.7432 431.407 10.3318C431.24 9.9204 430.972 9.55731 430.629 9.27554C429.685 8.41482 428.511 7.8478 427.251 7.64387C426.794 7.55885 426.331 7.51541 425.867 7.51407H425.864Z" fill="#292A2E"/>
<path d="M426.001 6.92383L424.809 14.0752L426.567 14.4759L428.042 7.21602L426.001 6.92383Z" fill="#292A2E"/>
<path d="M433.146 14.6175C433.464 14.6175 433.722 14.3596 433.722 14.0414C433.722 13.7233 433.464 13.4653 433.146 13.4653C432.828 13.4653 432.57 13.7233 432.57 14.0414C432.57 14.3596 432.828 14.6175 433.146 14.6175Z" fill="#292A2E"/>
<path d="M434.15 11.6683C434.468 11.6683 434.726 11.4104 434.726 11.0922C434.726 10.774 434.468 10.5161 434.15 10.5161C433.831 10.5161 433.573 10.774 433.573 11.0922C433.573 11.4104 433.831 11.6683 434.15 11.6683Z" fill="#292A2E"/>
</g>
<path d="M11.6591 301.909C11.5568 301.045 11.142 300.375 10.4148 299.898C9.6875 299.42 8.79545 299.182 7.73864 299.182C6.96591 299.182 6.28977 299.307 5.71023 299.557C5.13636 299.807 4.6875 300.151 4.36364 300.588C4.04545 301.026 3.88636 301.523 3.88636 302.08C3.88636 302.545 3.99716 302.946 4.21875 303.281C4.44602 303.611 4.7358 303.886 5.08807 304.108C5.44034 304.324 5.80966 304.503 6.19602 304.645C6.58239 304.781 6.9375 304.892 7.26136 304.977L9.03409 305.455C9.48864 305.574 9.99432 305.739 10.5511 305.949C11.1136 306.159 11.6506 306.446 12.1619 306.81C12.679 307.168 13.1051 307.628 13.4403 308.19C13.7756 308.753 13.9432 309.443 13.9432 310.261C13.9432 311.205 13.696 312.057 13.2017 312.818C12.7131 313.58 11.9972 314.185 11.054 314.634C10.1165 315.082 8.97727 315.307 7.63636 315.307C6.38636 315.307 5.30398 315.105 4.3892 314.702C3.48011 314.298 2.7642 313.736 2.24148 313.014C1.72443 312.293 1.43182 311.455 1.36364 310.5H3.54545C3.60227 311.159 3.82386 311.705 4.21023 312.136C4.60227 312.562 5.09659 312.881 5.69318 313.091C6.29545 313.295 6.94318 313.398 7.63636 313.398C8.44318 313.398 9.16761 313.267 9.80966 313.006C10.4517 312.739 10.9602 312.369 11.3352 311.898C11.7102 311.42 11.8977 310.864 11.8977 310.227C11.8977 309.648 11.7358 309.176 11.4119 308.812C11.0881 308.449 10.6619 308.153 10.1335 307.926C9.60511 307.699 9.03409 307.5 8.42045 307.33L6.27273 306.716C4.90909 306.324 3.82955 305.764 3.03409 305.037C2.23864 304.31 1.84091 303.358 1.84091 302.182C1.84091 301.205 2.10511 300.352 2.63352 299.625C3.16761 298.892 3.88352 298.324 4.78125 297.92C5.68466 297.511 6.69318 297.307 7.80682 297.307C8.93182 297.307 9.93182 297.509 10.8068 297.912C11.6818 298.31 12.375 298.855 12.8864 299.548C13.4034 300.241 13.6761 301.028 13.7045 301.909H11.6591ZM22.4638 315.273C21.282 315.273 20.245 314.991 19.353 314.429C18.4666 313.866 17.7734 313.08 17.2734 312.068C16.7791 311.057 16.532 309.875 16.532 308.523C16.532 307.159 16.7791 305.969 17.2734 304.952C17.7734 303.935 18.4666 303.145 19.353 302.582C20.245 302.02 21.282 301.739 22.4638 301.739C23.6456 301.739 24.6797 302.02 25.5661 302.582C26.4581 303.145 27.1513 303.935 27.6456 304.952C28.1456 305.969 28.3956 307.159 28.3956 308.523C28.3956 309.875 28.1456 311.057 27.6456 312.068C27.1513 313.08 26.4581 313.866 25.5661 314.429C24.6797 314.991 23.6456 315.273 22.4638 315.273ZM22.4638 313.466C23.3615 313.466 24.1001 313.236 24.6797 312.776C25.2592 312.315 25.6882 311.71 25.9666 310.96C26.245 310.21 26.3842 309.398 26.3842 308.523C26.3842 307.648 26.245 306.832 25.9666 306.077C25.6882 305.321 25.2592 304.71 24.6797 304.244C24.1001 303.778 23.3615 303.545 22.4638 303.545C21.5661 303.545 20.8274 303.778 20.2479 304.244C19.6683 304.71 19.2393 305.321 18.9609 306.077C18.6825 306.832 18.5433 307.648 18.5433 308.523C18.5433 309.398 18.6825 310.21 18.9609 310.96C19.2393 311.71 19.6683 312.315 20.2479 312.776C20.8274 313.236 21.5661 313.466 22.4638 313.466ZM31.4659 315V301.909H33.4091V303.886H33.5455C33.7841 303.239 34.2159 302.713 34.8409 302.31C35.4659 301.906 36.1705 301.705 36.9545 301.705C37.1023 301.705 37.2869 301.707 37.5085 301.713C37.7301 301.719 37.8977 301.727 38.0114 301.739V303.784C37.9432 303.767 37.7869 303.741 37.5426 303.707C37.304 303.668 37.0511 303.648 36.7841 303.648C36.1477 303.648 35.5795 303.781 35.0795 304.048C34.5852 304.31 34.1932 304.673 33.9034 305.139C33.6193 305.599 33.4773 306.125 33.4773 306.716V315H31.4659ZM40.3956 315V301.909H42.3388V303.886H42.4751C42.7138 303.239 43.1456 302.713 43.7706 302.31C44.3956 301.906 45.1001 301.705 45.8842 301.705C46.032 301.705 46.2166 301.707 46.4382 301.713C46.6598 301.719 46.8274 301.727 46.9411 301.739V303.784C46.8729 303.767 46.7166 303.741 46.4723 303.707C46.2337 303.668 45.9808 303.648 45.7138 303.648C45.0774 303.648 44.5092 303.781 44.0092 304.048C43.5149 304.31 43.1229 304.673 42.8331 305.139C42.549 305.599 42.407 306.125 42.407 306.716V315H40.3956ZM51.0192 319.909C50.6783 319.909 50.3743 319.881 50.1072 319.824C49.8402 319.773 49.6555 319.722 49.5533 319.67L50.0646 317.898C50.5533 318.023 50.9851 318.068 51.3601 318.034C51.7351 318 52.0675 317.832 52.3572 317.531C52.6527 317.236 52.9226 316.756 53.1669 316.091L53.5419 315.068L48.701 301.909H50.8828L54.4964 312.341H54.6328L58.2464 301.909H60.4283L54.8714 316.909C54.6214 317.585 54.3118 318.145 53.9425 318.588C53.5732 319.037 53.1442 319.369 52.6555 319.585C52.1726 319.801 51.6271 319.909 51.0192 319.909ZM65.2628 312.614L65.1264 313.534C65.0298 314.182 64.8821 314.875 64.6832 315.614C64.4901 316.352 64.2884 317.048 64.0781 317.702C63.8679 318.355 63.6946 318.875 63.5582 319.261H62.0241C62.098 318.898 62.1946 318.418 62.3139 317.821C62.4332 317.224 62.5526 316.557 62.6719 315.818C62.7969 315.085 62.8991 314.335 62.9787 313.568L63.081 312.614H65.2628ZM77.7507 307.125V315H75.7393V301.909H77.6825V303.955H77.853C78.1598 303.29 78.6257 302.756 79.2507 302.352C79.8757 301.943 80.6825 301.739 81.6712 301.739C82.5575 301.739 83.3331 301.92 83.9979 302.284C84.6626 302.642 85.1797 303.188 85.549 303.92C85.9183 304.648 86.103 305.568 86.103 306.682V315H84.0916V306.818C84.0916 305.79 83.8246 304.989 83.2905 304.415C82.7564 303.835 82.0234 303.545 81.0916 303.545C80.4496 303.545 79.8757 303.685 79.37 303.963C78.87 304.241 78.4751 304.648 78.1854 305.182C77.8956 305.716 77.7507 306.364 77.7507 307.125ZM95.0966 315.273C93.9148 315.273 92.8778 314.991 91.9858 314.429C91.0994 313.866 90.4062 313.08 89.9062 312.068C89.4119 311.057 89.1648 309.875 89.1648 308.523C89.1648 307.159 89.4119 305.969 89.9062 304.952C90.4062 303.935 91.0994 303.145 91.9858 302.582C92.8778 302.02 93.9148 301.739 95.0966 301.739C96.2784 301.739 97.3125 302.02 98.1989 302.582C99.0909 303.145 99.7841 303.935 100.278 304.952C100.778 305.969 101.028 307.159 101.028 308.523C101.028 309.875 100.778 311.057 100.278 312.068C99.7841 313.08 99.0909 313.866 98.1989 314.429C97.3125 314.991 96.2784 315.273 95.0966 315.273ZM95.0966 313.466C95.9943 313.466 96.733 313.236 97.3125 312.776C97.892 312.315 98.321 311.71 98.5994 310.96C98.8778 310.21 99.017 309.398 99.017 308.523C99.017 307.648 98.8778 306.832 98.5994 306.077C98.321 305.321 97.892 304.71 97.3125 304.244C96.733 303.778 95.9943 303.545 95.0966 303.545C94.1989 303.545 93.4602 303.778 92.8807 304.244C92.3011 304.71 91.8722 305.321 91.5938 306.077C91.3153 306.832 91.1761 307.648 91.1761 308.523C91.1761 309.398 91.3153 310.21 91.5938 310.96C91.8722 311.71 92.3011 312.315 92.8807 312.776C93.4602 313.236 94.1989 313.466 95.0966 313.466ZM112.86 307.125V315H110.849V301.909H112.792V303.955H112.962C113.269 303.29 113.735 302.756 114.36 302.352C114.985 301.943 115.792 301.739 116.781 301.739C117.667 301.739 118.442 301.92 119.107 302.284C119.772 302.642 120.289 303.188 120.658 303.92C121.028 304.648 121.212 305.568 121.212 306.682V315H119.201V306.818C119.201 305.79 118.934 304.989 118.4 304.415C117.866 303.835 117.133 303.545 116.201 303.545C115.559 303.545 114.985 303.685 114.479 303.963C113.979 304.241 113.585 304.648 113.295 305.182C113.005 305.716 112.86 306.364 112.86 307.125ZM130.376 315.273C129.115 315.273 128.027 314.994 127.112 314.438C126.203 313.875 125.501 313.091 125.007 312.085C124.518 311.074 124.274 309.898 124.274 308.557C124.274 307.216 124.518 306.034 125.007 305.011C125.501 303.983 126.189 303.182 127.07 302.608C127.956 302.028 128.99 301.739 130.172 301.739C130.854 301.739 131.527 301.852 132.192 302.08C132.857 302.307 133.462 302.676 134.007 303.188C134.553 303.693 134.987 304.364 135.311 305.199C135.635 306.034 135.797 307.062 135.797 308.284V309.136H125.706V307.398H133.751C133.751 306.659 133.604 306 133.308 305.42C133.018 304.841 132.604 304.384 132.064 304.048C131.53 303.713 130.899 303.545 130.172 303.545C129.371 303.545 128.678 303.744 128.092 304.142C127.513 304.534 127.067 305.045 126.754 305.676C126.442 306.307 126.286 306.983 126.286 307.705V308.864C126.286 309.852 126.456 310.69 126.797 311.378C127.143 312.06 127.624 312.58 128.237 312.938C128.851 313.29 129.564 313.466 130.376 313.466C130.905 313.466 131.382 313.392 131.808 313.244C132.24 313.091 132.612 312.864 132.925 312.562C133.237 312.256 133.479 311.875 133.649 311.42L135.592 311.966C135.388 312.625 135.044 313.205 134.561 313.705C134.078 314.199 133.482 314.585 132.771 314.864C132.061 315.136 131.263 315.273 130.376 315.273ZM141.822 315L137.834 301.909H139.947L142.777 311.932H142.913L145.709 301.909H147.857L150.618 311.898H150.754L153.584 301.909H155.697L151.709 315H149.732L146.868 304.943H146.663L143.8 315H141.822ZM165.107 301.909H167.118V315.955C167.118 316.761 166.979 317.46 166.7 318.051C166.428 318.642 166.013 319.099 165.456 319.423C164.905 319.747 164.209 319.909 163.368 319.909C163.3 319.909 163.232 319.909 163.163 319.909C163.095 319.909 163.027 319.909 162.959 319.909V318.034C163.027 318.034 163.089 318.034 163.146 318.034C163.203 318.034 163.266 318.034 163.334 318.034C163.947 318.034 164.396 317.852 164.68 317.489C164.964 317.131 165.107 316.619 165.107 315.955V301.909ZM166.095 299.727C165.703 299.727 165.365 299.594 165.081 299.327C164.803 299.06 164.663 298.739 164.663 298.364C164.663 297.989 164.803 297.668 165.081 297.401C165.365 297.134 165.703 297 166.095 297C166.487 297 166.822 297.134 167.101 297.401C167.385 297.668 167.527 297.989 167.527 298.364C167.527 298.739 167.385 299.06 167.101 299.327C166.822 299.594 166.487 299.727 166.095 299.727ZM176.12 315.273C174.938 315.273 173.901 314.991 173.009 314.429C172.123 313.866 171.43 313.08 170.93 312.068C170.435 311.057 170.188 309.875 170.188 308.523C170.188 307.159 170.435 305.969 170.93 304.952C171.43 303.935 172.123 303.145 173.009 302.582C173.901 302.02 174.938 301.739 176.12 301.739C177.302 301.739 178.336 302.02 179.222 302.582C180.114 303.145 180.808 303.935 181.302 304.952C181.802 305.969 182.052 307.159 182.052 308.523C182.052 309.875 181.802 311.057 181.302 312.068C180.808 313.08 180.114 313.866 179.222 314.429C178.336 314.991 177.302 315.273 176.12 315.273ZM176.12 313.466C177.018 313.466 177.756 313.236 178.336 312.776C178.915 312.315 179.344 311.71 179.623 310.96C179.901 310.21 180.04 309.398 180.04 308.523C180.04 307.648 179.901 306.832 179.623 306.077C179.344 305.321 178.915 304.71 178.336 304.244C177.756 303.778 177.018 303.545 176.12 303.545C175.222 303.545 174.484 303.778 173.904 304.244C173.325 304.71 172.896 305.321 172.617 306.077C172.339 306.832 172.2 307.648 172.2 308.523C172.2 309.398 172.339 310.21 172.617 310.96C172.896 311.71 173.325 312.315 173.904 312.776C174.484 313.236 175.222 313.466 176.12 313.466ZM185.395 315V297.545H187.406V303.989H187.577C187.724 303.761 187.929 303.472 188.19 303.119C188.457 302.761 188.838 302.443 189.332 302.165C189.832 301.881 190.509 301.739 191.361 301.739C192.463 301.739 193.435 302.014 194.276 302.565C195.116 303.116 195.773 303.898 196.244 304.909C196.716 305.92 196.952 307.114 196.952 308.489C196.952 309.875 196.716 311.077 196.244 312.094C195.773 313.105 195.119 313.889 194.284 314.446C193.449 314.997 192.486 315.273 191.395 315.273C190.554 315.273 189.881 315.134 189.375 314.855C188.869 314.571 188.48 314.25 188.207 313.892C187.935 313.528 187.724 313.227 187.577 312.989H187.338V315H185.395ZM187.372 308.455C187.372 309.443 187.517 310.315 187.807 311.071C188.097 311.821 188.52 312.409 189.077 312.835C189.634 313.256 190.315 313.466 191.122 313.466C191.963 313.466 192.665 313.244 193.227 312.801C193.795 312.352 194.222 311.75 194.506 310.994C194.795 310.233 194.94 309.386 194.94 308.455C194.94 307.534 194.798 306.705 194.514 305.966C194.236 305.222 193.813 304.634 193.244 304.202C192.682 303.764 191.974 303.545 191.122 303.545C190.304 303.545 189.616 303.753 189.06 304.168C188.503 304.577 188.082 305.151 187.798 305.889C187.514 306.622 187.372 307.477 187.372 308.455ZM208.79 297.545V315H206.778V297.545H208.79ZM217.962 315.273C216.701 315.273 215.613 314.994 214.698 314.438C213.789 313.875 213.087 313.091 212.593 312.085C212.104 311.074 211.86 309.898 211.86 308.557C211.86 307.216 212.104 306.034 212.593 305.011C213.087 303.983 213.775 303.182 214.656 302.608C215.542 302.028 216.576 301.739 217.758 301.739C218.44 301.739 219.113 301.852 219.778 302.08C220.442 302.307 221.048 302.676 221.593 303.188C222.138 303.693 222.573 304.364 222.897 305.199C223.221 306.034 223.383 307.062 223.383 308.284V309.136H213.292V307.398H221.337C221.337 306.659 221.19 306 220.894 305.42C220.604 304.841 220.19 304.384 219.65 304.048C219.116 303.713 218.485 303.545 217.758 303.545C216.957 303.545 216.263 303.744 215.678 304.142C215.099 304.534 214.653 305.045 214.34 305.676C214.028 306.307 213.871 306.983 213.871 307.705V308.864C213.871 309.852 214.042 310.69 214.383 311.378C214.729 312.06 215.21 312.58 215.823 312.938C216.437 313.29 217.15 313.466 217.962 313.466C218.491 313.466 218.968 313.392 219.394 313.244C219.826 313.091 220.198 312.864 220.511 312.562C220.823 312.256 221.065 311.875 221.235 311.42L223.178 311.966C222.974 312.625 222.63 313.205 222.147 313.705C221.664 314.199 221.067 314.585 220.357 314.864C219.647 315.136 218.849 315.273 217.962 315.273ZM230.295 315.307C229.465 315.307 228.712 315.151 228.036 314.838C227.36 314.52 226.823 314.062 226.425 313.466C226.028 312.864 225.829 312.136 225.829 311.284C225.829 310.534 225.977 309.926 226.272 309.46C226.567 308.989 226.962 308.619 227.457 308.352C227.951 308.085 228.496 307.886 229.093 307.756C229.695 307.619 230.3 307.511 230.908 307.432C231.704 307.33 232.349 307.253 232.843 307.202C233.343 307.145 233.707 307.051 233.934 306.92C234.167 306.79 234.283 306.562 234.283 306.239V306.17C234.283 305.33 234.053 304.676 233.593 304.21C233.138 303.744 232.448 303.511 231.522 303.511C230.562 303.511 229.809 303.722 229.263 304.142C228.718 304.562 228.335 305.011 228.113 305.489L226.204 304.807C226.545 304.011 226.999 303.392 227.567 302.949C228.141 302.5 228.766 302.187 229.442 302.011C230.124 301.83 230.795 301.739 231.454 301.739C231.874 301.739 232.357 301.79 232.903 301.892C233.454 301.989 233.985 302.19 234.496 302.497C235.013 302.804 235.442 303.267 235.783 303.886C236.124 304.506 236.295 305.335 236.295 306.375V315H234.283V313.227H234.181C234.045 313.511 233.817 313.815 233.499 314.139C233.181 314.463 232.758 314.739 232.229 314.966C231.701 315.193 231.056 315.307 230.295 315.307ZM230.602 313.5C231.397 313.5 232.067 313.344 232.613 313.031C233.164 312.719 233.579 312.315 233.857 311.821C234.141 311.327 234.283 310.807 234.283 310.261V308.42C234.198 308.523 234.011 308.616 233.721 308.702C233.437 308.781 233.107 308.852 232.732 308.915C232.363 308.972 232.002 309.023 231.65 309.068C231.303 309.108 231.022 309.142 230.806 309.17C230.283 309.239 229.795 309.349 229.34 309.503C228.891 309.651 228.528 309.875 228.249 310.176C227.977 310.472 227.84 310.875 227.84 311.386C227.84 312.085 228.099 312.614 228.616 312.972C229.138 313.324 229.8 313.5 230.602 313.5ZM244.909 315.273C243.818 315.273 242.855 314.997 242.02 314.446C241.185 313.889 240.531 313.105 240.06 312.094C239.588 311.077 239.352 309.875 239.352 308.489C239.352 307.114 239.588 305.92 240.06 304.909C240.531 303.898 241.188 303.116 242.028 302.565C242.869 302.014 243.841 301.739 244.943 301.739C245.795 301.739 246.469 301.881 246.963 302.165C247.463 302.443 247.844 302.761 248.105 303.119C248.372 303.472 248.58 303.761 248.727 303.989H248.898V297.545H250.909V315H248.966V312.989H248.727C248.58 313.227 248.369 313.528 248.097 313.892C247.824 314.25 247.435 314.571 246.929 314.855C246.423 315.134 245.75 315.273 244.909 315.273ZM245.182 313.466C245.989 313.466 246.67 313.256 247.227 312.835C247.784 312.409 248.207 311.821 248.497 311.071C248.787 310.315 248.932 309.443 248.932 308.455C248.932 307.477 248.79 306.622 248.506 305.889C248.222 305.151 247.801 304.577 247.244 304.168C246.688 303.753 246 303.545 245.182 303.545C244.33 303.545 243.619 303.764 243.051 304.202C242.489 304.634 242.065 305.222 241.781 305.966C241.503 306.705 241.364 307.534 241.364 308.455C241.364 309.386 241.506 310.233 241.79 310.994C242.08 311.75 242.506 312.352 243.068 312.801C243.636 313.244 244.341 313.466 245.182 313.466ZM264.145 304.841L262.338 305.352C262.224 305.051 262.057 304.759 261.835 304.474C261.619 304.185 261.324 303.946 260.949 303.759C260.574 303.571 260.094 303.477 259.509 303.477C258.707 303.477 258.04 303.662 257.506 304.031C256.977 304.395 256.713 304.858 256.713 305.42C256.713 305.92 256.895 306.315 257.259 306.605C257.622 306.895 258.19 307.136 258.963 307.33L260.906 307.807C262.077 308.091 262.949 308.526 263.523 309.111C264.097 309.69 264.384 310.437 264.384 311.352C264.384 312.102 264.168 312.773 263.736 313.364C263.31 313.955 262.713 314.42 261.946 314.761C261.179 315.102 260.287 315.273 259.27 315.273C257.935 315.273 256.83 314.983 255.955 314.403C255.08 313.824 254.526 312.977 254.293 311.864L256.202 311.386C256.384 312.091 256.727 312.619 257.233 312.972C257.744 313.324 258.412 313.5 259.236 313.5C260.173 313.5 260.918 313.301 261.469 312.903C262.026 312.5 262.304 312.017 262.304 311.455C262.304 311 262.145 310.619 261.827 310.312C261.509 310 261.02 309.767 260.361 309.614L258.179 309.102C256.98 308.818 256.099 308.378 255.537 307.781C254.98 307.179 254.702 306.426 254.702 305.523C254.702 304.784 254.909 304.131 255.324 303.562C255.744 302.994 256.315 302.548 257.037 302.224C257.764 301.901 258.588 301.739 259.509 301.739C260.804 301.739 261.821 302.023 262.56 302.591C263.304 303.159 263.832 303.909 264.145 304.841ZM278.013 315.307C277.184 315.307 276.431 315.151 275.755 314.838C275.079 314.52 274.542 314.062 274.144 313.466C273.746 312.864 273.548 312.136 273.548 311.284C273.548 310.534 273.695 309.926 273.991 309.46C274.286 308.989 274.681 308.619 275.175 308.352C275.67 308.085 276.215 307.886 276.812 307.756C277.414 307.619 278.019 307.511 278.627 307.432C279.423 307.33 280.067 307.253 280.562 307.202C281.062 307.145 281.425 307.051 281.653 306.92C281.886 306.79 282.002 306.562 282.002 306.239V306.17C282.002 305.33 281.772 304.676 281.312 304.21C280.857 303.744 280.167 303.511 279.241 303.511C278.281 303.511 277.528 303.722 276.982 304.142C276.437 304.562 276.053 305.011 275.832 305.489L273.923 304.807C274.263 304.011 274.718 303.392 275.286 302.949C275.86 302.5 276.485 302.187 277.161 302.011C277.843 301.83 278.513 301.739 279.173 301.739C279.593 301.739 280.076 301.79 280.621 301.892C281.173 301.989 281.704 302.19 282.215 302.497C282.732 302.804 283.161 303.267 283.502 303.886C283.843 304.506 284.013 305.335 284.013 306.375V315H282.002V313.227H281.9C281.763 313.511 281.536 313.815 281.218 314.139C280.9 314.463 280.477 314.739 279.948 314.966C279.42 315.193 278.775 315.307 278.013 315.307ZM278.32 313.5C279.116 313.5 279.786 313.344 280.332 313.031C280.883 312.719 281.298 312.315 281.576 311.821C281.86 311.327 282.002 310.807 282.002 310.261V308.42C281.917 308.523 281.729 308.616 281.44 308.702C281.156 308.781 280.826 308.852 280.451 308.915C280.082 308.972 279.721 309.023 279.369 309.068C279.022 309.108 278.741 309.142 278.525 309.17C278.002 309.239 277.513 309.349 277.059 309.503C276.61 309.651 276.246 309.875 275.968 310.176C275.695 310.472 275.559 310.875 275.559 311.386C275.559 312.085 275.817 312.614 276.335 312.972C276.857 313.324 277.519 313.5 278.32 313.5ZM293.378 301.909V303.614H286.594V301.909H293.378ZM288.571 298.773H290.582V311.25C290.582 311.818 290.665 312.244 290.83 312.528C291 312.807 291.216 312.994 291.477 313.091C291.744 313.182 292.026 313.227 292.321 313.227C292.543 313.227 292.724 313.216 292.866 313.193C293.009 313.165 293.122 313.142 293.207 313.125L293.616 314.932C293.48 314.983 293.29 315.034 293.045 315.085C292.801 315.142 292.491 315.17 292.116 315.17C291.548 315.17 290.991 315.048 290.446 314.804C289.906 314.56 289.457 314.188 289.099 313.688C288.747 313.188 288.571 312.557 288.571 311.795V298.773ZM308.847 301.909V303.614H302.062V301.909H308.847ZM304.04 298.773H306.051V311.25C306.051 311.818 306.134 312.244 306.298 312.528C306.469 312.807 306.685 312.994 306.946 313.091C307.213 313.182 307.494 313.227 307.79 313.227C308.011 313.227 308.193 313.216 308.335 313.193C308.477 313.165 308.591 313.142 308.676 313.125L309.085 314.932C308.949 314.983 308.759 315.034 308.514 315.085C308.27 315.142 307.96 315.17 307.585 315.17C307.017 315.17 306.46 315.048 305.915 314.804C305.375 314.56 304.926 314.188 304.568 313.688C304.216 313.188 304.04 312.557 304.04 311.795V298.773ZM314.165 307.125V315H312.153V297.545H314.165V303.955H314.335C314.642 303.278 315.102 302.741 315.716 302.344C316.335 301.94 317.159 301.739 318.188 301.739C319.08 301.739 319.861 301.918 320.531 302.276C321.202 302.628 321.722 303.17 322.091 303.903C322.466 304.631 322.653 305.557 322.653 306.682V315H320.642V306.818C320.642 305.778 320.372 304.974 319.832 304.406C319.298 303.832 318.557 303.545 317.608 303.545C316.949 303.545 316.358 303.685 315.835 303.963C315.318 304.241 314.909 304.648 314.608 305.182C314.313 305.716 314.165 306.364 314.165 307.125ZM331.822 315.273C330.56 315.273 329.472 314.994 328.558 314.438C327.648 313.875 326.947 313.091 326.452 312.085C325.964 311.074 325.719 309.898 325.719 308.557C325.719 307.216 325.964 306.034 326.452 305.011C326.947 303.983 327.634 303.182 328.515 302.608C329.401 302.028 330.435 301.739 331.617 301.739C332.299 301.739 332.972 301.852 333.637 302.08C334.302 302.307 334.907 302.676 335.452 303.188C335.998 303.693 336.433 304.364 336.756 305.199C337.08 306.034 337.242 307.062 337.242 308.284V309.136H327.151V307.398H335.197C335.197 306.659 335.049 306 334.754 305.42C334.464 304.841 334.049 304.384 333.509 304.048C332.975 303.713 332.344 303.545 331.617 303.545C330.816 303.545 330.123 303.744 329.538 304.142C328.958 304.534 328.512 305.045 328.2 305.676C327.887 306.307 327.731 306.983 327.731 307.705V308.864C327.731 309.852 327.901 310.69 328.242 311.378C328.589 312.06 329.069 312.58 329.683 312.938C330.296 313.29 331.009 313.466 331.822 313.466C332.35 313.466 332.827 313.392 333.254 313.244C333.685 313.091 334.058 312.864 334.37 312.562C334.683 312.256 334.924 311.875 335.094 311.42L337.038 311.966C336.833 312.625 336.489 313.205 336.006 313.705C335.523 314.199 334.927 314.585 334.217 314.864C333.506 315.136 332.708 315.273 331.822 315.273ZM347.052 315V301.909H348.995V303.955H349.165C349.438 303.256 349.879 302.713 350.487 302.327C351.094 301.935 351.825 301.739 352.677 301.739C353.54 301.739 354.259 301.935 354.833 302.327C355.413 302.713 355.864 303.256 356.188 303.955H356.325C356.66 303.278 357.163 302.741 357.833 302.344C358.504 301.94 359.308 301.739 360.245 301.739C361.415 301.739 362.373 302.105 363.117 302.838C363.862 303.565 364.234 304.699 364.234 306.239V315H362.222V306.239C362.222 305.273 361.958 304.582 361.43 304.168C360.901 303.753 360.279 303.545 359.563 303.545C358.643 303.545 357.93 303.824 357.424 304.381C356.918 304.932 356.665 305.631 356.665 306.477V315H354.62V306.034C354.62 305.29 354.379 304.69 353.896 304.236C353.413 303.776 352.79 303.545 352.029 303.545C351.506 303.545 351.018 303.685 350.563 303.963C350.114 304.241 349.751 304.628 349.472 305.122C349.2 305.611 349.063 306.176 349.063 306.818V315H347.052ZM373.229 315.273C372.048 315.273 371.011 314.991 370.119 314.429C369.232 313.866 368.539 313.08 368.039 312.068C367.545 311.057 367.298 309.875 367.298 308.523C367.298 307.159 367.545 305.969 368.039 304.952C368.539 303.935 369.232 303.145 370.119 302.582C371.011 302.02 372.048 301.739 373.229 301.739C374.411 301.739 375.445 302.02 376.332 302.582C377.224 303.145 377.917 303.935 378.411 304.952C378.911 305.969 379.161 307.159 379.161 308.523C379.161 309.875 378.911 311.057 378.411 312.068C377.917 313.08 377.224 313.866 376.332 314.429C375.445 314.991 374.411 315.273 373.229 315.273ZM373.229 313.466C374.127 313.466 374.866 313.236 375.445 312.776C376.025 312.315 376.454 311.71 376.732 310.96C377.011 310.21 377.15 309.398 377.15 308.523C377.15 307.648 377.011 306.832 376.732 306.077C376.454 305.321 376.025 304.71 375.445 304.244C374.866 303.778 374.127 303.545 373.229 303.545C372.332 303.545 371.593 303.778 371.013 304.244C370.434 304.71 370.005 305.321 369.727 306.077C369.448 306.832 369.309 307.648 369.309 308.523C369.309 309.398 369.448 310.21 369.727 310.96C370.005 311.71 370.434 312.315 371.013 312.776C371.593 313.236 372.332 313.466 373.229 313.466ZM382.232 315V301.909H384.175V303.955H384.345C384.618 303.256 385.058 302.713 385.666 302.327C386.274 301.935 387.004 301.739 387.857 301.739C388.72 301.739 389.439 301.935 390.013 302.327C390.592 302.713 391.044 303.256 391.368 303.955H391.504C391.839 303.278 392.342 302.741 393.013 302.344C393.683 301.94 394.487 301.739 395.425 301.739C396.595 301.739 397.553 302.105 398.297 302.838C399.041 303.565 399.413 304.699 399.413 306.239V315H397.402V306.239C397.402 305.273 397.138 304.582 396.609 304.168C396.081 303.753 395.459 303.545 394.743 303.545C393.822 303.545 393.109 303.824 392.604 304.381C392.098 304.932 391.845 305.631 391.845 306.477V315H389.8V306.034C389.8 305.29 389.558 304.69 389.075 304.236C388.592 303.776 387.97 303.545 387.209 303.545C386.686 303.545 386.197 303.685 385.743 303.963C385.294 304.241 384.93 304.628 384.652 305.122C384.379 305.611 384.243 306.176 384.243 306.818V315H382.232ZM408.58 315.273C407.318 315.273 406.23 314.994 405.315 314.438C404.406 313.875 403.705 313.091 403.21 312.085C402.722 311.074 402.477 309.898 402.477 308.557C402.477 307.216 402.722 306.034 403.21 305.011C403.705 303.983 404.392 303.182 405.273 302.608C406.159 302.028 407.193 301.739 408.375 301.739C409.057 301.739 409.73 301.852 410.395 302.08C411.06 302.307 411.665 302.676 412.21 303.188C412.756 303.693 413.19 304.364 413.514 305.199C413.838 306.034 414 307.062 414 308.284V309.136H403.909V307.398H411.955C411.955 306.659 411.807 306 411.511 305.42C411.222 304.841 410.807 304.384 410.267 304.048C409.733 303.713 409.102 303.545 408.375 303.545C407.574 303.545 406.881 303.744 406.295 304.142C405.716 304.534 405.27 305.045 404.957 305.676C404.645 306.307 404.489 306.983 404.489 307.705V308.864C404.489 309.852 404.659 310.69 405 311.378C405.347 312.06 405.827 312.58 406.44 312.938C407.054 313.29 407.767 313.466 408.58 313.466C409.108 313.466 409.585 313.392 410.011 313.244C410.443 313.091 410.815 312.864 411.128 312.562C411.44 312.256 411.682 311.875 411.852 311.42L413.795 311.966C413.591 312.625 413.247 313.205 412.764 313.705C412.281 314.199 411.685 314.585 410.974 314.864C410.264 315.136 409.466 315.273 408.58 315.273ZM419.071 307.125V315H417.06V301.909H419.003V303.955H419.173C419.48 303.29 419.946 302.756 420.571 302.352C421.196 301.943 422.003 301.739 422.991 301.739C423.878 301.739 424.653 301.92 425.318 302.284C425.983 302.642 426.5 303.188 426.869 303.92C427.239 304.648 427.423 305.568 427.423 306.682V315H425.412V306.818C425.412 305.79 425.145 304.989 424.611 304.415C424.077 303.835 423.344 303.545 422.412 303.545C421.77 303.545 421.196 303.685 420.69 303.963C420.19 304.241 419.795 304.648 419.506 305.182C419.216 305.716 419.071 306.364 419.071 307.125ZM436.792 301.909V303.614H430.008V301.909H436.792ZM431.985 298.773H433.996V311.25C433.996 311.818 434.079 312.244 434.244 312.528C434.414 312.807 434.63 312.994 434.891 313.091C435.158 313.182 435.44 313.227 435.735 313.227C435.957 313.227 436.138 313.216 436.281 313.193C436.423 313.165 436.536 313.142 436.621 313.125L437.031 314.932C436.894 314.983 436.704 315.034 436.46 315.085C436.215 315.142 435.906 315.17 435.531 315.17C434.962 315.17 434.406 315.048 433.86 314.804C433.32 314.56 432.871 314.188 432.513 313.688C432.161 313.188 431.985 312.557 431.985 311.795V298.773ZM441.283 315.136C440.863 315.136 440.502 314.986 440.201 314.685C439.9 314.384 439.749 314.023 439.749 313.602C439.749 313.182 439.9 312.821 440.201 312.52C440.502 312.219 440.863 312.068 441.283 312.068C441.704 312.068 442.065 312.219 442.366 312.52C442.667 312.821 442.817 313.182 442.817 313.602C442.817 313.881 442.746 314.136 442.604 314.369C442.468 314.602 442.283 314.79 442.05 314.932C441.823 315.068 441.567 315.136 441.283 315.136ZM462.995 301.909C462.893 301.045 462.478 300.375 461.751 299.898C461.023 299.42 460.131 299.182 459.075 299.182C458.302 299.182 457.626 299.307 457.046 299.557C456.472 299.807 456.023 300.151 455.7 300.588C455.381 301.026 455.222 301.523 455.222 302.08C455.222 302.545 455.333 302.946 455.555 303.281C455.782 303.611 456.072 303.886 456.424 304.108C456.776 304.324 457.146 304.503 457.532 304.645C457.918 304.781 458.273 304.892 458.597 304.977L460.37 305.455C460.825 305.574 461.33 305.739 461.887 305.949C462.45 306.159 462.987 306.446 463.498 306.81C464.015 307.168 464.441 307.628 464.776 308.19C465.112 308.753 465.279 309.443 465.279 310.261C465.279 311.205 465.032 312.057 464.538 312.818C464.049 313.58 463.333 314.185 462.39 314.634C461.452 315.082 460.313 315.307 458.972 315.307C457.722 315.307 456.64 315.105 455.725 314.702C454.816 314.298 454.1 313.736 453.577 313.014C453.06 312.293 452.768 311.455 452.7 310.5H454.881C454.938 311.159 455.16 311.705 455.546 312.136C455.938 312.562 456.433 312.881 457.029 313.091C457.631 313.295 458.279 313.398 458.972 313.398C459.779 313.398 460.504 313.267 461.146 313.006C461.788 312.739 462.296 312.369 462.671 311.898C463.046 311.42 463.234 310.864 463.234 310.227C463.234 309.648 463.072 309.176 462.748 308.812C462.424 308.449 461.998 308.153 461.469 307.926C460.941 307.699 460.37 307.5 459.756 307.33L457.609 306.716C456.245 306.324 455.165 305.764 454.37 305.037C453.575 304.31 453.177 303.358 453.177 302.182C453.177 301.205 453.441 300.352 453.969 299.625C454.504 298.892 455.219 298.324 456.117 297.92C457.021 297.511 458.029 297.307 459.143 297.307C460.268 297.307 461.268 297.509 462.143 297.912C463.018 298.31 463.711 298.855 464.222 299.548C464.739 300.241 465.012 301.028 465.04 301.909H462.995ZM474.175 301.909V303.614H467.391V301.909H474.175ZM469.368 298.773H471.379V311.25C471.379 311.818 471.462 312.244 471.626 312.528C471.797 312.807 472.013 312.994 472.274 313.091C472.541 313.182 472.822 313.227 473.118 313.227C473.339 313.227 473.521 313.216 473.663 313.193C473.805 313.165 473.919 313.142 474.004 313.125L474.413 314.932C474.277 314.983 474.087 315.034 473.842 315.085C473.598 315.142 473.288 315.17 472.913 315.17C472.345 315.17 471.788 315.048 471.243 314.804C470.703 314.56 470.254 314.188 469.896 313.688C469.544 313.188 469.368 312.557 469.368 311.795V298.773ZM481.053 315.307C480.223 315.307 479.47 315.151 478.794 314.838C478.118 314.52 477.581 314.062 477.183 313.466C476.786 312.864 476.587 312.136 476.587 311.284C476.587 310.534 476.734 309.926 477.03 309.46C477.325 308.989 477.72 308.619 478.214 308.352C478.709 308.085 479.254 307.886 479.851 307.756C480.453 307.619 481.058 307.511 481.666 307.432C482.462 307.33 483.107 307.253 483.601 307.202C484.101 307.145 484.464 307.051 484.692 306.92C484.925 306.79 485.041 306.562 485.041 306.239V306.17C485.041 305.33 484.811 304.676 484.351 304.21C483.896 303.744 483.206 303.511 482.28 303.511C481.32 303.511 480.567 303.722 480.021 304.142C479.476 304.562 479.092 305.011 478.871 305.489L476.962 304.807C477.303 304.011 477.757 303.392 478.325 302.949C478.899 302.5 479.524 302.187 480.2 302.011C480.882 301.83 481.553 301.739 482.212 301.739C482.632 301.739 483.115 301.79 483.661 301.892C484.212 301.989 484.743 302.19 485.254 302.497C485.771 302.804 486.2 303.267 486.541 303.886C486.882 304.506 487.053 305.335 487.053 306.375V315H485.041V313.227H484.939C484.803 313.511 484.575 313.815 484.257 314.139C483.939 314.463 483.516 314.739 482.987 314.966C482.459 315.193 481.814 315.307 481.053 315.307ZM481.359 313.5C482.155 313.5 482.825 313.344 483.371 313.031C483.922 312.719 484.337 312.315 484.615 311.821C484.899 311.327 485.041 310.807 485.041 310.261V308.42C484.956 308.523 484.768 308.616 484.479 308.702C484.195 308.781 483.865 308.852 483.49 308.915C483.121 308.972 482.76 309.023 482.408 309.068C482.061 309.108 481.78 309.142 481.564 309.17C481.041 309.239 480.553 309.349 480.098 309.503C479.649 309.651 479.286 309.875 479.007 310.176C478.734 310.472 478.598 310.875 478.598 311.386C478.598 312.085 478.857 312.614 479.374 312.972C479.896 313.324 480.558 313.5 481.359 313.5ZM491.55 319.909C491.21 319.909 490.906 319.881 490.638 319.824C490.371 319.773 490.187 319.722 490.085 319.67L490.596 317.898C491.085 318.023 491.516 318.068 491.891 318.034C492.266 318 492.599 317.832 492.888 317.531C493.184 317.236 493.454 316.756 493.698 316.091L494.073 315.068L489.232 301.909H491.414L495.028 312.341H495.164L498.778 301.909H500.96L495.403 316.909C495.153 317.585 494.843 318.145 494.474 318.588C494.104 319.037 493.675 319.369 493.187 319.585C492.704 319.801 492.158 319.909 491.55 319.909ZM516.058 301.909V303.614H509.273V301.909H516.058ZM511.251 298.773H513.262V311.25C513.262 311.818 513.344 312.244 513.509 312.528C513.68 312.807 513.896 312.994 514.157 313.091C514.424 313.182 514.705 313.227 515.001 313.227C515.222 313.227 515.404 313.216 515.546 313.193C515.688 313.165 515.802 313.142 515.887 313.125L516.296 314.932C516.16 314.983 515.969 315.034 515.725 315.085C515.481 315.142 515.171 315.17 514.796 315.17C514.228 315.17 513.671 315.048 513.126 314.804C512.586 314.56 512.137 314.188 511.779 313.688C511.427 313.188 511.251 312.557 511.251 311.795V298.773ZM527.333 309.648V301.909H529.344V315H527.333V312.784H527.197C526.89 313.449 526.413 314.014 525.765 314.48C525.117 314.94 524.299 315.17 523.31 315.17C522.492 315.17 521.765 314.991 521.129 314.634C520.492 314.27 519.992 313.724 519.629 312.997C519.265 312.264 519.083 311.341 519.083 310.227V301.909H521.094V310.091C521.094 311.045 521.362 311.807 521.896 312.375C522.435 312.943 523.123 313.227 523.958 313.227C524.458 313.227 524.967 313.099 525.484 312.844C526.006 312.588 526.444 312.196 526.796 311.668C527.154 311.139 527.333 310.466 527.333 309.648ZM535.04 307.125V315H533.028V301.909H534.972V303.955H535.142C535.449 303.29 535.915 302.756 536.54 302.352C537.165 301.943 537.972 301.739 538.96 301.739C539.847 301.739 540.622 301.92 541.287 302.284C541.952 302.642 542.469 303.188 542.838 303.92C543.207 304.648 543.392 305.568 543.392 306.682V315H541.381V306.818C541.381 305.79 541.114 304.989 540.58 304.415C540.045 303.835 539.313 303.545 538.381 303.545C537.739 303.545 537.165 303.685 536.659 303.963C536.159 304.241 535.764 304.648 535.474 305.182C535.185 305.716 535.04 306.364 535.04 307.125ZM552.556 315.273C551.295 315.273 550.207 314.994 549.292 314.438C548.383 313.875 547.681 313.091 547.187 312.085C546.698 311.074 546.454 309.898 546.454 308.557C546.454 307.216 546.698 306.034 547.187 305.011C547.681 303.983 548.369 303.182 549.249 302.608C550.136 302.028 551.17 301.739 552.352 301.739C553.033 301.739 553.707 301.852 554.371 302.08C555.036 302.307 555.641 302.676 556.187 303.188C556.732 303.693 557.167 304.364 557.491 305.199C557.815 306.034 557.977 307.062 557.977 308.284V309.136H547.886V307.398H555.931C555.931 306.659 555.783 306 555.488 305.42C555.198 304.841 554.783 304.384 554.244 304.048C553.71 303.713 553.079 303.545 552.352 303.545C551.55 303.545 550.857 303.744 550.272 304.142C549.692 304.534 549.246 305.045 548.934 305.676C548.621 306.307 548.465 306.983 548.465 307.705V308.864C548.465 309.852 548.636 310.69 548.977 311.378C549.323 312.06 549.803 312.58 550.417 312.938C551.031 313.29 551.744 313.466 552.556 313.466C553.085 313.466 553.562 313.392 553.988 313.244C554.42 313.091 554.792 312.864 555.104 312.562C555.417 312.256 555.658 311.875 555.829 311.42L557.772 311.966C557.567 312.625 557.224 313.205 556.741 313.705C556.258 314.199 555.661 314.585 554.951 314.864C554.241 315.136 553.442 315.273 552.556 315.273ZM565.979 315.273C564.888 315.273 563.925 314.997 563.09 314.446C562.255 313.889 561.602 313.105 561.13 312.094C560.658 311.077 560.423 309.875 560.423 308.489C560.423 307.114 560.658 305.92 561.13 304.909C561.602 303.898 562.258 303.116 563.099 302.565C563.94 302.014 564.911 301.739 566.013 301.739C566.866 301.739 567.539 301.881 568.033 302.165C568.533 302.443 568.914 302.761 569.175 303.119C569.442 303.472 569.65 303.761 569.798 303.989H569.968V297.545H571.979V315H570.036V312.989H569.798C569.65 313.227 569.44 313.528 569.167 313.892C568.894 314.25 568.505 314.571 567.999 314.855C567.494 315.134 566.82 315.273 565.979 315.273ZM566.252 313.466C567.059 313.466 567.741 313.256 568.298 312.835C568.854 312.409 569.278 311.821 569.567 311.071C569.857 310.315 570.002 309.443 570.002 308.455C570.002 307.477 569.86 306.622 569.576 305.889C569.292 305.151 568.871 304.577 568.315 304.168C567.758 303.753 567.07 303.545 566.252 303.545C565.4 303.545 564.69 303.764 564.121 304.202C563.559 304.634 563.136 305.222 562.852 305.966C562.573 306.705 562.434 307.534 562.434 308.455C562.434 309.386 562.576 310.233 562.86 310.994C563.15 311.75 563.576 312.352 564.138 312.801C564.707 313.244 565.411 313.466 566.252 313.466ZM578.602 297.545L578.431 310.091H576.454L576.283 297.545H578.602ZM577.442 315.136C577.022 315.136 576.661 314.986 576.36 314.685C576.059 314.384 575.908 314.023 575.908 313.602C575.908 313.182 576.059 312.821 576.36 312.52C576.661 312.219 577.022 312.068 577.442 312.068C577.863 312.068 578.224 312.219 578.525 312.52C578.826 312.821 578.977 313.182 578.977 313.602C578.977 313.881 578.906 314.136 578.763 314.369C578.627 314.602 578.442 314.79 578.21 314.932C577.982 315.068 577.727 315.136 577.442 315.136Z" fill="black" fill-opacity="0.87"/>
<defs>
<clipPath id="clip0_1681_2492">
<rect width="330.776" height="282" fill="white" transform="translate(125.112)"/>
</clipPath>
</defs>
</svg>
